<?xml version="1.0" encoding="UTF-8" standalone="no"?>
<svg width="50px" height="50px" viewBox="0 0 50 50" version="1.1" xmlns="http://www.w3.org/2000/svg" xmlns:xlink="http://www.w3.org/1999/xlink">
    <!-- Generator: Sketch 3.7.1 (28215) - http://www.bohemiancoding.com/sketch -->
    <title>Group 2</title>
    <desc>Created with Sketch.</desc>
    <defs></defs>
    <g id="Page-1" stroke="none" stroke-width="1" fill="none" fill-rule="evenodd">
        <g id="Open-Files-Text" transform="translate(-925.000000, -725.000000)">
            <g id="Group-12" transform="translate(925.000000, 725.000000)">
                <rect id="Rectangle-6" x="0" y="0" width="50" height="50"></rect>
                <path d="M34.8888889,28.2222222 C33.1666667,28.2222222 31.7777778,26.8333333 31.7777778,25.1111111 C31.7777778,23.3888889 33.1666667,22 34.8888889,22 C36.6111111,22 38,23.3888889 38,25.1111111 C38,26.8333333 36.6111111,28.2222222 34.8888889,28.2222222 M16.1111111,28.2222222 C14.3888889,28.2222222 13,26.8333333 13,25.1111111 C13,23.3888889 14.3888889,22 16.1111111,22 C17.8333333,22 19.2222222,23.3888889 19.2222222,25.1111111 C19.25,26.8333333 17.8611111,28.2222222 16.1111111,28.2222222 Z M25.5,28.2222222 C23.7777778,28.2222222 22.3888889,26.8333333 22.3888889,25.1111111 C22.3888889,23.3888889 23.7777778,22 25.5,22 C27.2222222,22 28.6111111,23.3888889 28.6111111,25.1111111 C28.6111111,26.8333333 27.2222222,28.2222222 25.5,28.2222222 Z" id="Shape" fill="#2D2D2D"></path>
            </g>
        </g>
    </g>
</svg>