<?xml version="1.0" encoding="UTF-8"?>
<svg width="50px" height="50px" viewBox="0 0 50 50" version="1.1" xmlns="http://www.w3.org/2000/svg" xmlns:xlink="http://www.w3.org/1999/xlink">
    <!-- Generator: Sketch 47.1 (45422) - http://www.bohemiancoding.com/sketch -->
    <title>Artboard</title>
    <desc>Created with Sketch.</desc>
    <defs>
        <linearGradient x1="100%" y1="50%" x2="0%" y2="50%" id="linearGradient-1">
            <stop stop-color="#FE936F" offset="0%"></stop>
            <stop stop-color="#FEAB8C" offset="100%"></stop>
        </linearGradient>
    </defs>
    <g id="Symbols" stroke="none" stroke-width="1" fill="none" fill-rule="evenodd">
        <g id="Artboard">
            <g id="Group" transform="translate(1.000000, 1.000000)">
                <circle id="Oval" fill="url(#linearGradient-1)" cx="24" cy="24" r="24"></circle>
                <g id="noun_943995_cc" transform="translate(11.076923, 14.769231)" fill-rule="nonzero" fill="#FFFFFF">
                    <path d="M24.5384615,3.08391608 L20.0769231,3.08391608 L20.0769231,2.34965035 C20.0769231,1.13488112 19.0763487,0.146853147 17.8461538,0.146853147 L2.23076923,0.146853147 C1.00057436,0.146853147 0,1.13488112 0,2.34965035 L0,14.0979021 C0,15.3126713 1.00057436,16.3006993 2.23076923,16.3006993 L6.69230769,16.3006993 L6.69230769,17.034965 C6.69230769,18.2497343 7.69288205,19.2377622 8.92307692,19.2377622 L24.5384615,19.2377622 C25.7686564,19.2377622 26.7692308,18.2497343 26.7692308,17.034965 L26.7692308,5.28671329 C26.7692308,4.07194406 25.7686564,3.08391608 24.5384615,3.08391608 Z M2.23076923,14.8321678 C1.82060513,14.8321678 1.48717949,14.5026294 1.48717949,14.0979021 L1.48717949,2.34965035 C1.48717949,1.94492308 1.82060513,1.61538462 2.23076923,1.61538462 L17.8461538,1.61538462 C18.2563179,1.61538462 18.5897436,1.94492308 18.5897436,2.34965035 L18.5897436,14.0979021 C18.5897436,14.5026294 18.2563179,14.8321678 17.8461538,14.8321678 L2.23076923,14.8321678 Z M25.2820513,17.034965 C25.2820513,17.4396923 24.9486256,17.7692308 24.5384615,17.7692308 L8.92307692,17.7692308 C8.51291282,17.7692308 8.17948718,17.4396923 8.17948718,17.034965 L8.17948718,16.3006993 L17.8461538,16.3006993 C19.0763487,16.3006993 20.0769231,15.3126713 20.0769231,14.0979021 L20.0769231,8.95804196 L25.2820513,8.95804196 L25.2820513,17.034965 Z M25.2820513,6.02097902 L20.0769231,6.02097902 L20.0769231,4.55244755 L24.5384615,4.55244755 C24.9486256,4.55244755 25.2820513,4.88198601 25.2820513,5.28671329 L25.2820513,6.02097902 Z" id="Shape"></path>
                    <path d="M5.20512821,10.4265734 L3.71794872,10.4265734 C3.30718974,10.4265734 2.97435897,10.7552308 2.97435897,11.1608392 C2.97435897,11.5664476 3.30718974,11.8951049 3.71794872,11.8951049 L5.20512821,11.8951049 C5.61588718,11.8951049 5.94871795,11.5664476 5.94871795,11.1608392 C5.94871795,10.7552308 5.61588718,10.4265734 5.20512821,10.4265734 Z" id="Shape"></path>
                    <path d="M8.92307692,10.4265734 L7.43589744,10.4265734 C7.02513846,10.4265734 6.69230769,10.7552308 6.69230769,11.1608392 C6.69230769,11.5664476 7.02513846,11.8951049 7.43589744,11.8951049 L8.92307692,11.8951049 C9.3338359,11.8951049 9.66666667,11.5664476 9.66666667,11.1608392 C9.66666667,10.7552308 9.3338359,10.4265734 8.92307692,10.4265734 Z" id="Shape"></path>
                    <path d="M12.6410256,10.4265734 L11.1538462,10.4265734 C10.7430872,10.4265734 10.4102564,10.7552308 10.4102564,11.1608392 C10.4102564,11.5664476 10.7430872,11.8951049 11.1538462,11.8951049 L12.6410256,11.8951049 C13.0517846,11.8951049 13.3846154,11.5664476 13.3846154,11.1608392 C13.3846154,10.7552308 13.0517846,10.4265734 12.6410256,10.4265734 Z" id="Shape"></path>
                    <path d="M16.3589744,10.4265734 L14.8717949,10.4265734 C14.4610359,10.4265734 14.1282051,10.7552308 14.1282051,11.1608392 C14.1282051,11.5664476 14.4610359,11.8951049 14.8717949,11.8951049 L16.3589744,11.8951049 C16.7697333,11.8951049 17.1025641,11.5664476 17.1025641,11.1608392 C17.1025641,10.7552308 16.7697333,10.4265734 16.3589744,10.4265734 Z" id="Shape"></path>
                    <path d="M3.71794872,8.95804196 L7.43589744,8.95804196 C7.84665641,8.95804196 8.17948718,8.62938462 8.17948718,8.22377622 L8.17948718,5.28671329 C8.17948718,4.8811049 7.84665641,4.55244755 7.43589744,4.55244755 L3.71794872,4.55244755 C3.30718974,4.55244755 2.97435897,4.8811049 2.97435897,5.28671329 L2.97435897,8.22377622 C2.97435897,8.62938462 3.30718974,8.95804196 3.71794872,8.95804196 Z M4.46153846,6.02097902 L6.69230769,6.02097902 L6.69230769,7.48951049 L4.46153846,7.48951049 L4.46153846,6.02097902 Z" id="Shape"></path>
                </g>
            </g>
        </g>
    </g>
</svg>