<?xml version="1.0" encoding="UTF-8"?>
<svg width="50px" height="50px" viewBox="0 0 50 50" version="1.1" xmlns="http://www.w3.org/2000/svg" xmlns:xlink="http://www.w3.org/1999/xlink">
    <!-- Generator: Sketch 47.1 (45422) - http://www.bohemiancoding.com/sketch -->
    <title>Artboard</title>
    <desc>Created with Sketch.</desc>
    <defs></defs>
    <g id="Mobile" stroke="none" stroke-width="1" fill="none" fill-rule="evenodd">
        <g id="Artboard" fill-rule="nonzero" fill="#4A4E69">
            <path d="M45,13.1948052 L37,13.1948052 L37,11.8961039 C37,9.74753247 35.2058667,8 33,8 L5,8 C2.79413333,8 1,9.74753247 1,11.8961039 L1,32.6753247 C1,34.8238961 2.79413333,36.5714286 5,36.5714286 L13,36.5714286 L13,37.8701299 C13,40.0187013 14.7941333,41.7662338 17,41.7662338 L45,41.7662338 C47.2058667,41.7662338 49,40.0187013 49,37.8701299 L49,17.0909091 C49,14.9423377 47.2058667,13.1948052 45,13.1948052 Z M5,33.974026 C4.26453333,33.974026 3.66666667,33.3911688 3.66666667,32.6753247 L3.66666667,11.8961039 C3.66666667,11.1802597 4.26453333,10.5974026 5,10.5974026 L33,10.5974026 C33.7354667,10.5974026 34.3333333,11.1802597 34.3333333,11.8961039 L34.3333333,32.6753247 C34.3333333,33.3911688 33.7354667,33.974026 33,33.974026 L5,33.974026 Z M46.3333333,37.8701299 C46.3333333,38.585974 45.7354667,39.1688312 45,39.1688312 L17,39.1688312 C16.2645333,39.1688312 15.6666667,38.585974 15.6666667,37.8701299 L15.6666667,36.5714286 L33,36.5714286 C35.2058667,36.5714286 37,34.8238961 37,32.6753247 L37,23.5844156 L46.3333333,23.5844156 L46.3333333,37.8701299 Z M46.3333333,18.3896104 L37,18.3896104 L37,15.7922078 L45,15.7922078 C45.7354667,15.7922078 46.3333333,16.3750649 46.3333333,17.0909091 L46.3333333,18.3896104 Z M10.3333333,26.1818182 C11.0698667,26.1818182 11.6666667,26.7631169 11.6666667,27.4805195 C11.6666667,28.1979221 11.0698667,28.7792208 10.3333333,28.7792208 L7.66666667,28.7792208 C6.93013333,28.7792208 6.33333333,28.1979221 6.33333333,27.4805195 C6.33333333,26.7631169 6.93013333,26.1818182 7.66666667,26.1818182 L10.3333333,26.1818182 Z M17,26.1818182 C17.7365333,26.1818182 18.3333333,26.7631169 18.3333333,27.4805195 C18.3333333,28.1979221 17.7365333,28.7792208 17,28.7792208 L14.3333333,28.7792208 C13.5968,28.7792208 13,28.1979221 13,27.4805195 C13,26.7631169 13.5968,26.1818182 14.3333333,26.1818182 L17,26.1818182 Z M23.6666667,26.1818182 C24.4032,26.1818182 25,26.7631169 25,27.4805195 C25,28.1979221 24.4032,28.7792208 23.6666667,28.7792208 L21,28.7792208 C20.2634667,28.7792208 19.6666667,28.1979221 19.6666667,27.4805195 C19.6666667,26.7631169 20.2634667,26.1818182 21,26.1818182 L23.6666667,26.1818182 Z M30.3333333,26.1818182 C31.0698667,26.1818182 31.6666667,26.7631169 31.6666667,27.4805195 C31.6666667,28.1979221 31.0698667,28.7792208 30.3333333,28.7792208 L27.6666667,28.7792208 C26.9301333,28.7792208 26.3333333,28.1979221 26.3333333,27.4805195 C26.3333333,26.7631169 26.9301333,26.1818182 27.6666667,26.1818182 L30.3333333,26.1818182 Z M7.66666667,23.5844156 L14.3333333,23.5844156 C15.0698667,23.5844156 15.6666667,23.0031169 15.6666667,22.2857143 L15.6666667,17.0909091 C15.6666667,16.3735065 15.0698667,15.7922078 14.3333333,15.7922078 L7.66666667,15.7922078 C6.93013333,15.7922078 6.33333333,16.3735065 6.33333333,17.0909091 L6.33333333,22.2857143 C6.33333333,23.0031169 6.93013333,23.5844156 7.66666667,23.5844156 Z M9,18.3896104 L13,18.3896104 L13,20.987013 L9,20.987013 L9,18.3896104 Z" id="Combined-Shape"></path>
        </g>
    </g>
</svg>