<?xml version="1.0" encoding="UTF-8"?>
<svg width="50px" height="50px" viewBox="0 0 50 50" version="1.1" xmlns="http://www.w3.org/2000/svg" xmlns:xlink="http://www.w3.org/1999/xlink">
    <!-- Generator: Sketch 47.1 (45422) - http://www.bohemiancoding.com/sketch -->
    <title>Artboard</title>
    <desc>Created with Sketch.</desc>
    <defs></defs>
    <g id="Symbols" stroke="none" stroke-width="1" fill="none" fill-rule="evenodd">
        <g id="Artboard">
            <g id="Group" transform="translate(1.000000, 1.000000)">
                <circle id="Oval" stroke="#FFFFFF" stroke-width="3" fill="#FFFFFF" cx="24" cy="24" r="24"></circle>
                <g id="noun_943995_cc" transform="translate(10.560000, 14.400000)" fill-rule="nonzero" fill="#4A4E69">
                    <path d="M25.52,3.20727273 L20.88,3.20727273 L20.88,2.44363636 C20.88,1.18027636 19.8394027,0.152727273 18.56,0.152727273 L2.32,0.152727273 C1.04059733,0.152727273 0,1.18027636 0,2.44363636 L0,14.6618182 C0,15.9251782 1.04059733,16.9527273 2.32,16.9527273 L6.96,16.9527273 L6.96,17.7163636 C6.96,18.9797236 8.00059733,20.0072727 9.28,20.0072727 L25.52,20.0072727 C26.7994027,20.0072727 27.84,18.9797236 27.84,17.7163636 L27.84,5.49818182 C27.84,4.23482182 26.7994027,3.20727273 25.52,3.20727273 Z M2.32,15.4254545 C1.89342933,15.4254545 1.54666667,15.0827345 1.54666667,14.6618182 L1.54666667,2.44363636 C1.54666667,2.02272 1.89342933,1.68 2.32,1.68 L18.56,1.68 C18.9865707,1.68 19.3333333,2.02272 19.3333333,2.44363636 L19.3333333,14.6618182 C19.3333333,15.0827345 18.9865707,15.4254545 18.56,15.4254545 L2.32,15.4254545 Z M26.2933333,17.7163636 C26.2933333,18.13728 25.9465707,18.48 25.52,18.48 L9.28,18.48 C8.85342933,18.48 8.50666667,18.13728 8.50666667,17.7163636 L8.50666667,16.9527273 L18.56,16.9527273 C19.8394027,16.9527273 20.88,15.9251782 20.88,14.6618182 L20.88,9.31636364 L26.2933333,9.31636364 L26.2933333,17.7163636 Z M26.2933333,6.26181818 L20.88,6.26181818 L20.88,4.73454545 L25.52,4.73454545 C25.9465707,4.73454545 26.2933333,5.07726545 26.2933333,5.49818182 L26.2933333,6.26181818 Z" id="Shape"></path>
                    <path d="M5.41333333,10.8436364 L3.86666667,10.8436364 C3.43947733,10.8436364 3.09333333,11.18544 3.09333333,11.6072727 C3.09333333,12.0291055 3.43947733,12.3709091 3.86666667,12.3709091 L5.41333333,12.3709091 C5.84052267,12.3709091 6.18666667,12.0291055 6.18666667,11.6072727 C6.18666667,11.18544 5.84052267,10.8436364 5.41333333,10.8436364 Z" id="Shape"></path>
                    <path d="M9.28,10.8436364 L7.73333333,10.8436364 C7.306144,10.8436364 6.96,11.18544 6.96,11.6072727 C6.96,12.0291055 7.306144,12.3709091 7.73333333,12.3709091 L9.28,12.3709091 C9.70718933,12.3709091 10.0533333,12.0291055 10.0533333,11.6072727 C10.0533333,11.18544 9.70718933,10.8436364 9.28,10.8436364 Z" id="Shape"></path>
                    <path d="M13.1466667,10.8436364 L11.6,10.8436364 C11.1728107,10.8436364 10.8266667,11.18544 10.8266667,11.6072727 C10.8266667,12.0291055 11.1728107,12.3709091 11.6,12.3709091 L13.1466667,12.3709091 C13.573856,12.3709091 13.92,12.0291055 13.92,11.6072727 C13.92,11.18544 13.573856,10.8436364 13.1466667,10.8436364 Z" id="Shape"></path>
                    <path d="M17.0133333,10.8436364 L15.4666667,10.8436364 C15.0394773,10.8436364 14.6933333,11.18544 14.6933333,11.6072727 C14.6933333,12.0291055 15.0394773,12.3709091 15.4666667,12.3709091 L17.0133333,12.3709091 C17.4405227,12.3709091 17.7866667,12.0291055 17.7866667,11.6072727 C17.7866667,11.18544 17.4405227,10.8436364 17.0133333,10.8436364 Z" id="Shape"></path>
                    <path d="M3.86666667,9.31636364 L7.73333333,9.31636364 C8.16052267,9.31636364 8.50666667,8.97456 8.50666667,8.55272727 L8.50666667,5.49818182 C8.50666667,5.07634909 8.16052267,4.73454545 7.73333333,4.73454545 L3.86666667,4.73454545 C3.43947733,4.73454545 3.09333333,5.07634909 3.09333333,5.49818182 L3.09333333,8.55272727 C3.09333333,8.97456 3.43947733,9.31636364 3.86666667,9.31636364 Z M4.64,6.26181818 L6.96,6.26181818 L6.96,7.78909091 L4.64,7.78909091 L4.64,6.26181818 Z" id="Shape"></path>
                </g>
            </g>
        </g>
    </g>
</svg>