<?xml version="1.0" encoding="UTF-8"?>
<svg width="100px" height="100px" viewBox="0 0 100 100" version="1.1" xmlns="http://www.w3.org/2000/svg" xmlns:xlink="http://www.w3.org/1999/xlink">
    <!-- Generator: Sketch 47 (45396) - http://www.bohemiancoding.com/sketch -->
    <title>Artboard</title>
    <desc>Created with Sketch.</desc>
    <defs></defs>
    <g id="Symbols" stroke="none" stroke-width="1" fill="none" fill-rule="evenodd">
        <g id="Artboard" fill-rule="nonzero" fill="#4A4E69">
            <path d="M69.2847574,47.6167938 L55.0133677,42.1987009 L56.4171109,38.1940236 C56.6510681,38.1940236 56.8850253,38.1940236 57.1189825,38.1940236 C58.0548114,38.1940236 58.9906402,37.7228851 59.2245974,36.7806081 C59.6925118,35.6027618 58.9906402,34.1893463 57.8208542,33.7182078 L41.4438496,27.3578379 L39.3382347,26.6511301 C38.1684487,26.1799916 36.7647054,26.6511301 36.296791,27.8289764 C35.8288766,29.0068227 36.296791,30.1846689 37.466577,30.8913767 L29.7459892,51.3859018 C28.5762031,51.1503326 27.4064171,51.6214711 26.9385027,52.7993174 C26.4705882,53.9771636 27.1724599,55.3905792 28.3422459,55.8617177 C47.0588226,63.1643646 44.2513361,61.9865183 46.8248654,62.9287953 C47.9946514,63.3999338 49.3983947,62.6932261 49.8663091,61.5153798 C50.3342235,60.3375335 49.6323519,59.1596872 48.696523,58.4529795 L50.1002663,54.6838714 L64.371656,60.1019643 C67.8810141,61.5153798 71.6243295,59.6308257 73.0280727,56.0972869 C74.431816,52.7993174 72.7941155,48.79464 69.2847574,47.6167938 Z M44.2513361,57.039564 L34.1911761,53.2704559 L41.911764,32.7759307 L51.9719239,36.5450388 C51.2700523,38.4295928 45.1871649,54.9194407 44.2513361,57.039564 Z M68.816843,54.6838714 C68.3489285,55.6261484 67.1791425,56.3328562 66.2433137,55.8617177 L51.9719239,50.4436248 C52.9077528,48.0879323 52.4398384,49.0302093 53.3756672,46.4389475 L67.6470569,51.8570404 C68.5828857,52.3281789 69.2847574,53.5060251 68.816843,54.6838714 Z M57.1189825,68.8180267 C58.5227258,68.8180267 59.4585546,69.7603037 59.4585546,71.1737192 C59.4585546,72.5871347 58.2887686,73.5294118 57.1189825,73.5294118 L28.8101603,73.5294118 C27.4064171,73.5294118 26.4705882,72.5871347 26.4705882,71.1737192 C26.4705882,69.7603037 27.4064171,68.8180267 28.8101603,68.8180267 C75.8355592,68.8180267 15.9425139,68.8180267 57.1189825,68.8180267 Z M50,100 C22.3857625,100 0,77.6142375 0,50 C0,22.3857625 22.3857625,0 50,0 C77.6142375,0 100,22.3857625 100,50 C100,77.6142375 77.6142375,100 50,100 Z M50,94.1176471 C74.3655037,94.1176471 94.1176471,74.3655037 94.1176471,50 C94.1176471,25.6344963 74.3655037,5.88235294 50,5.88235294 C25.6344963,5.88235294 5.88235294,25.6344963 5.88235294,50 C5.88235294,74.3655037 25.6344963,94.1176471 50,94.1176471 Z" id="Oval-3"></path>
        </g>
    </g>
</svg>