<?xml version="1.0" encoding="UTF-8"?>
<svg width="100px" height="100px" viewBox="0 0 100 100" version="1.1" xmlns="http://www.w3.org/2000/svg" xmlns:xlink="http://www.w3.org/1999/xlink">
    <!-- Generator: Sketch 47 (45396) - http://www.bohemiancoding.com/sketch -->
    <title>Artboard</title>
    <desc>Created with Sketch.</desc>
    <defs></defs>
    <g id="Symbols" stroke="none" stroke-width="1" fill="none" fill-rule="evenodd">
        <g id="Artboard" fill-rule="nonzero" fill="#4A4E69">
            <g id="Group">
                <path d="M40.5570707,72.7272727 L28.0257576,72.7272727 C27.610101,72.7272727 27.2727273,72.3919192 27.2727273,71.9782828 L27.2727273,50.2494949 C27.2727273,49.8358586 27.610101,49.5005051 28.0257576,49.5005051 L40.5570707,49.5005051 C40.9722222,49.5005051 41.309596,49.8363636 41.309596,50.2494949 L41.309596,71.9777778 C41.309596,72.3919192 40.9722222,72.7272727 40.5570707,72.7272727 Z M28.7777778,71.2292929 L39.8035354,71.2292929 L39.8035354,50.9989899 L28.7777778,50.9989899 L28.7777778,71.2292929 Z" id="Shape" stroke="#4A4E69"></path>
                <path d="M59.329798,72.7272727 L40.6520202,72.7272727 C40.2358586,72.7272727 39.8989899,72.3919192 39.8989899,71.9782828 L39.8989899,28.0222222 C39.8989899,27.6080808 40.2358586,27.2727273 40.6520202,27.2727273 L59.329798,27.2727273 C59.7449495,27.2727273 60.0823232,27.6085859 60.0823232,28.0222222 L60.0823232,71.9777778 C60.0823232,72.3919192 59.7449495,72.7272727 59.329798,72.7272727 Z M41.4045455,71.2292929 L58.5767677,71.2292929 L58.5767677,28.7712121 L41.4045455,28.7712121 L41.4045455,71.2292929 Z" id="Shape" stroke="#4A4E69"></path>
                <path d="M71.9747475,72.7272727 L59.2348485,72.7272727 C58.8186869,72.7272727 58.4818182,72.3919192 58.4818182,71.9782828 L58.4818182,50.2494949 C58.4818182,49.8358586 58.8186869,49.5005051 59.2348485,49.5005051 L71.9747475,49.5005051 C72.389899,49.5005051 72.7272727,49.8363636 72.7272727,50.2494949 L72.7272727,71.9777778 C72.7272727,72.3919192 72.389899,72.7272727 71.9747475,72.7272727 Z M59.9873737,71.2292929 L71.2222222,71.2292929 L71.2222222,50.9989899 L59.9873737,50.9989899 L59.9873737,71.2292929 Z" id="Shape" stroke="#4A4E69"></path>
                <path d="M49.2940993,40.2630961 L45.959596,40.2630961 L51.2831013,45.959596 L52.043602,45.1667841 L48.4750985,41.3495419 L49.3525994,41.3495419 C50.5811006,41.3201785 51.6048516,40.3805497 51.8388518,39.1472868 L53.5353535,39.1472868 L53.5353535,38.060841 L51.8388518,38.060841 C51.7511018,37.6497533 51.6048516,37.2680291 51.3708514,36.9450317 L53.5353535,36.9450317 L53.5353535,35.8585859 L46.5153465,35.8585859 L46.5153465,36.9450317 L49.2940993,36.9450317 C49.96685,36.9450317 50.5226005,37.4148461 50.7273507,38.060841 L46.5153465,38.060841 L46.5153465,39.1472868 L50.7566008,39.1472868 C50.5226005,39.7932817 49.96685,40.2630961 49.2940993,40.2630961 Z" id="Shape"></path>
                <path d="M50,98.2954545 C23.327157,98.2954545 1.70454545,76.672843 1.70454545,50 C1.70454545,23.327157 23.327157,1.70454545 50,1.70454545 C76.672843,1.70454545 98.2954545,23.327157 98.2954545,50 C98.2954545,76.672843 76.672843,98.2954545 50,98.2954545 Z M50,92.6136364 C73.5348615,92.6136364 92.6136364,73.5348615 92.6136364,50 C92.6136364,26.4651385 73.5348615,7.38636364 50,7.38636364 C26.4651385,7.38636364 7.38636364,26.4651385 7.38636364,50 C7.38636364,73.5348615 26.4651385,92.6136364 50,92.6136364 Z" id="Oval-3"></path>
            </g>
        </g>
    </g>
</svg>