<?xml version="1.0" encoding="UTF-8"?>
<svg width="50px" height="50px" viewBox="0 0 50 50" version="1.1" xmlns="http://www.w3.org/2000/svg" xmlns:xlink="http://www.w3.org/1999/xlink">
    <!-- Generator: Sketch 47.1 (45422) - http://www.bohemiancoding.com/sketch -->
    <title>Artboard</title>
    <desc>Created with Sketch.</desc>
    <defs></defs>
    <g id="Mobile" stroke="none" stroke-width="1" fill="none" fill-rule="evenodd">
        <g id="Artboard" fill-rule="nonzero" fill="#FFFFFF">
            <path d="M33.6947368,22.2631579 L47.2947368,22.2631579 C48.2365277,22.2631579 49,23.0266302 49,23.9684211 C49,24.9102119 48.2365277,25.6736842 47.2947368,25.6736842 L33.6947368,25.6736842 C32.752946,25.6736842 31.9894737,24.9102119 31.9894737,23.9684211 C31.9894737,23.0266302 32.752946,22.2631579 33.6947368,22.2631579 Z M33.6947368,14.6842105 L47.2947368,14.6842105 C48.2365277,14.6842105 49,15.4476828 49,16.3894737 C49,17.3312645 48.2365277,18.0947368 47.2947368,18.0947368 L33.6947368,18.0947368 C32.752946,18.0947368 31.9894737,17.3312645 31.9894737,16.3894737 C31.9894737,15.4476828 32.752946,14.6842105 33.6947368,14.6842105 Z M37.5684211,29.8421053 L47.2947368,29.8421053 C48.2365277,29.8421053 49,30.6055776 49,31.5473684 C49,32.4891593 48.2365277,33.2526316 47.2947368,33.2526316 L37.5684211,33.2526316 C36.6266302,33.2526316 35.8631579,32.4891593 35.8631579,31.5473684 C35.8631579,30.6055776 36.6266302,29.8421053 37.5684211,29.8421053 Z M2.41725302,40.8315789 L1,39.4451358 L1,39.1263158 C1,30.8562074 8.30410381,24.1578947 17.2526316,24.1578947 C26.2011594,24.1578947 33.5052632,30.8562074 33.5052632,39.1263158 L33.5052632,39.4451358 L32.0880101,40.8315789 L2.41725302,40.8315789 Z M29.9148808,37.4210526 C28.9987484,31.8404117 23.6506106,27.5684211 17.2545684,27.5684211 C10.858159,27.5684211 5.50859267,31.8407362 4.59233271,37.4210526 L29.9148808,37.4210526 Z M17.2526316,27.5684211 C12.0324356,27.5684211 7.77894737,23.4074 7.77894737,18.2842105 C7.77894737,13.1610211 12.0324356,9 17.2526316,9 C22.4728276,9 26.7263158,13.1610211 26.7263158,18.2842105 C26.7263158,23.4074 22.4728276,27.5684211 17.2526316,27.5684211 Z M17.2526316,12.4105263 C13.929417,12.4105263 11.2315789,15.0497157 11.2315789,18.2842105 C11.2315789,21.5187053 13.929417,24.1578947 17.2526316,24.1578947 C20.5758461,24.1578947 23.2736842,21.5187053 23.2736842,18.2842105 C23.2736842,15.0497157 20.5758461,12.4105263 17.2526316,12.4105263 Z" id="Combined-Shape"></path>
        </g>
    </g>
</svg>