<?xml version="1.0" encoding="UTF-8"?>
<svg width="50px" height="50px" viewBox="0 0 50 50" version="1.1" xmlns="http://www.w3.org/2000/svg" xmlns:xlink="http://www.w3.org/1999/xlink">
    <!-- Generator: Sketch 47 (45396) - http://www.bohemiancoding.com/sketch -->
    <title>Artboard</title>
    <desc>Created with Sketch.</desc>
    <defs></defs>
    <g id="Symbols" stroke="none" stroke-width="1" fill="none" fill-rule="evenodd">
        <g id="Artboard" fill-rule="nonzero" fill="#4A4E69">
            <path d="M46.0933984,4.64333333 L43.6692722,4.64333333 L43.6692722,3.925 C43.6692722,1.76583333 41.9134681,0 39.7626706,0 L39.7068382,0 C37.5568741,0 35.8002367,1.76583333 35.8002367,3.925 L35.8002367,4.64333333 L14.1980967,4.64333333 L14.1980967,3.925 C14.1980967,1.76583333 12.4389594,0 10.2914951,0 L10.2323295,0 C8.08569857,0 6.3257279,1.76583333 6.3257279,3.925 L6.3257279,4.64333333 L3.90660156,4.64333333 C1.75747071,4.64333333 0,6.40916667 0,8.56583333 L0,46.075 C0,48.235 1.75913735,50 3.90660156,50 L46.0933984,50 C48.2433626,50 50,48.235 50,46.075 L50,8.56583333 C50,6.41 48.2441959,4.64333333 46.0933984,4.64333333 L46.0933984,4.64333333 Z M37.3627106,3.925 C37.3627106,2.625 38.4135264,1.56833333 39.7068382,1.56833333 L39.7626706,1.56833333 C41.0559824,1.56833333 42.1059649,2.625 42.1059649,3.925 L42.1059649,10.9033333 C42.1059649,12.1991667 41.057649,13.2508333 39.7626706,13.2566667 L39.7068382,13.2566667 C38.4093598,13.2533333 37.361044,12.2 37.3627106,10.9033333 L37.3627106,3.925 L37.3627106,3.925 Z M7.88903518,3.925 C7.88903518,2.625 8.93901768,1.56833333 10.2323295,1.56833333 L10.2914951,1.56833333 C11.582307,1.56833333 12.6347894,2.625 12.6347894,3.925 L12.6347894,10.9033333 C12.6347894,12.1991667 11.5864736,13.2508333 10.2914951,13.2566667 L10.2323295,13.2566667 C8.93485109,13.2533333 7.88736854,12.2 7.88903518,10.9033333 L7.88903518,3.925 L7.88903518,3.925 Z M46.0933984,46.8625 L3.90743488,46.8625 C3.47744204,46.8541667 3.13161447,46.505 3.12661456,46.075 L3.12661456,18.5 L46.8750521,18.5 L46.8750521,46.0775 C46.8700522,46.5083333 46.5242246,46.8575 46.0933984,46.865 L46.0933984,46.8625 L46.0933984,46.8625 Z M8.86735221,24.1125 L8.86735221,28.4958333 L16.0755654,28.4958333 L16.0755654,24.1166158 L8.86735221,24.1166158 L8.86735221,24.1125 L8.86735221,24.1125 Z M21.4538091,24.1125 L21.4538091,28.4958333 L28.6036899,28.4958333 L28.6036899,24.1166158 L21.4538091,24.1166158 L21.4538091,24.1125 L21.4538091,24.1125 Z M33.9819336,24.1125 L33.9819336,28.4958333 L41.0151497,28.4958333 L41.0151497,24.1166158 L33.9819336,24.1166158 L33.9819336,24.1125 L33.9819336,24.1125 Z M8.86735221,31.3225 L8.86735221,35.6458333 L16.0755654,35.6458333 L16.0755654,31.3225 L8.86735221,31.3225 L8.86735221,31.3225 Z M21.4538091,31.3225 L21.4538091,35.6458333 L28.6036899,35.6458333 L28.6036899,31.3225 L21.4538091,31.3225 L21.4538091,31.3225 Z M33.9819336,31.3225 L33.9819336,35.6458333 L41.0151497,35.6458333 L41.0151497,31.3225 L33.9819336,31.3225 L33.9819336,31.3225 Z M8.86735221,38.36 L8.86735221,42.8525 L16.0755654,42.8525 L16.0755654,38.36 L8.86735221,38.36 L8.86735221,38.36 Z M21.4538091,38.36 L21.4538091,42.8525 L28.6036899,42.8525 L28.6036899,38.36 L21.4538091,38.36 L21.4538091,38.36 Z M33.9819336,38.36 L33.9819336,42.8525 L41.0151497,42.8525 L41.0151497,38.36 L33.9819336,38.36 L33.9819336,38.36 Z" id="Shape"></path>
        </g>
    </g>
</svg>