<?xml version="1.0" encoding="UTF-8"?>
<svg width="50px" height="50px" viewBox="0 0 50 50" version="1.1" xmlns="http://www.w3.org/2000/svg" xmlns:xlink="http://www.w3.org/1999/xlink">
    <!-- Generator: Sketch 47 (45396) - http://www.bohemiancoding.com/sketch -->
    <title>Artboard</title>
    <desc>Created with Sketch.</desc>
    <defs></defs>
    <g id="Symbols" stroke="none" stroke-width="1" fill="none" fill-rule="evenodd">
        <g id="Artboard" fill-rule="nonzero" fill="#FFFFFF">
            <g id="Group-13" transform="translate(6.000000, 0.000000)">
                <path d="M24.2097701,24.0105263 L24.2097701,20.3333333 C24.2097701,17.3859649 21.7672414,15 18.75,15 C15.7327586,15 13.2902299,17.3859649 13.2902299,20.3333333 L13.2902299,23.9824561 C12.658046,24.6280702 12.1408046,25.4140351 11.795977,26.2561404 C11.4511494,27.0982456 11.25,28.0245614 11.25,29.0070175 C11.25,33.0491228 14.612069,36.3333333 18.75,36.3333333 C22.887931,36.3333333 26.25,33.0491228 26.25,29.0070175 C26.25,27.0701754 25.4741379,25.3298246 24.2097701,24.0105263 Z M19.3534483,29.3157895 L19.3534483,31.2807018 C19.3534483,31.5894737 19.0948276,31.8421053 18.7787356,31.8421053 C18.4626437,31.8421053 18.204023,31.5894737 18.204023,31.2807018 L18.204023,29.3157895 C17.887931,29.1192982 17.6867816,28.7824561 17.6867816,28.4175439 C17.6867816,27.8280702 18.1752874,27.3508772 18.7787356,27.3508772 C19.3821839,27.3508772 19.8706897,27.8280702 19.8706897,28.4175439 C19.8706897,28.7824561 19.6408046,29.1192982 19.3534483,29.3157895 Z M14.4683908,20.3333333 C14.4683908,18.0035088 16.3936782,16.122807 18.7787356,16.122807 C21.1637931,16.122807 23.0890805,18.0035088 23.0890805,20.3333333 L23.0890805,23.0280702 C21.8534483,22.1859649 20.387931,21.6807018 18.7787356,21.6807018 C17.1982759,21.6807018 15.704023,22.1578947 14.4971264,23 L14.4971264,20.3333333 L14.4683908,20.3333333 Z" id="Shape"></path>
                <path d="M37.5,29.0780085 C37.4953469,30.2374568 37.0908516,43.3196438 19.0342362,49.9642303 C18.9391743,50.0003999 18.8424744,50.0079319 18.7500342,49.9916999 C18.6402594,50.0107514 18.5286501,49.9956069 18.4256911,49.9490051 C-0.123671805,43.1030697 -0.00390076548,29.4575743 0.00242487665,29.0780181 L0,7.53886896 C0,7.08686868 0.298128346,6.72041894 0.665857066,6.72041894 C4.38853042,6.52732631 15.8263235,3.77649578 18.1176292,0.304364805 C18.3476644,-0.0482692964 18.7670037,-0.10204044 19.0525848,0.182685022 C22.0657853,3.70652823 32.3368553,6.49003639 36.860089,6.7236118 C37.2200512,6.73964309 37.5001248,7.1024273 37.4998627,7.53888009 L37.5,29.0780085 Z M36.1682859,8.31873992 C31.8403814,8.06216914 21.5129466,5.25780789 18.6896461,2.00696533 C16.3571488,5.33087501 4.9133547,8.0982904 1.33177613,8.31805446 L1.33177613,29.0780392 C1.32666423,29.2114802 1.05694645,41.7346454 18.6076461,48.3075152 C18.700643,48.2824622 18.7979655,48.2818581 18.8927328,48.3073943 C35.7852769,41.9809189 36.1686441,30.1427146 36.1713075,29.1555616 C36.1699968,29.1385642 36.1689896,22.192957 36.1682859,8.31873992 Z" id="Shape" stroke="#FFFFFF" stroke-width="0.5"></path>
            </g>
        </g>
    </g>
</svg>