<?xml version="1.0" encoding="UTF-8"?>
<svg width="50px" height="50px" viewBox="0 0 50 50" version="1.1" xmlns="http://www.w3.org/2000/svg" xmlns:xlink="http://www.w3.org/1999/xlink">
    <!-- Generator: Sketch 47.1 (45422) - http://www.bohemiancoding.com/sketch -->
    <title>Artboard</title>
    <desc>Created with Sketch.</desc>
    <defs></defs>
    <g id="Symbols" stroke="none" stroke-width="1" fill="none" fill-rule="evenodd">
        <g id="Artboard" fill-rule="nonzero" fill="#4A4E69">
            <path d="M25,50 C38.7662338,50 50,38.7662338 50,25 C50,11.2337662 38.7662338,0 25,0 C11.2337662,0 0,11.2337662 0,25 C0,38.7662338 11.2337662,50 25,50 Z M25,3.24675325 C37.012987,3.24675325 46.7532468,12.987013 46.7532468,25 C46.7532468,37.012987 37.012987,46.7532468 25,46.7532468 C12.987013,46.7532468 3.24675325,37.012987 3.24675325,25 C3.24675325,12.987013 12.987013,3.24675325 25,3.24675325 Z M16.038961,33.961039 C16.3636364,34.2857143 16.7532468,34.4155844 17.2077922,34.4155844 C17.6623377,34.4155844 18.0519481,34.2857143 18.3766234,33.961039 L25,27.2727273 L31.6883117,33.961039 C32.012987,34.2857143 32.4025974,34.4155844 32.8571429,34.4155844 C33.3116883,34.4155844 33.7012987,34.2857143 34.025974,33.961039 C34.6753247,33.3116883 34.6753247,32.2727273 34.025974,31.6883117 L27.2727273,25 L33.961039,18.3116883 C34.6103896,17.6623377 34.6103896,16.6233766 33.961039,16.038961 C33.3116883,15.3896104 32.2727273,15.3896104 31.6883117,16.038961 L25,22.7272727 L18.3116883,16.038961 C17.6623377,15.3896104 16.6233766,15.3896104 16.038961,16.038961 C15.3896104,16.6883117 15.3896104,17.7272727 16.038961,18.3116883 L22.7272727,25 L16.038961,31.6883117 C15.3896104,32.2727273 15.3896104,33.3116883 16.038961,33.961039 Z" id="Combined-Shape"></path>
        </g>
    </g>
</svg>