<?xml version="1.0" encoding="UTF-8"?>
<svg width="50px" height="50px" viewBox="0 0 50 50" version="1.1" xmlns="http://www.w3.org/2000/svg" xmlns:xlink="http://www.w3.org/1999/xlink">
    <!-- Generator: Sketch 47 (45396) - http://www.bohemiancoding.com/sketch -->
    <title>Artboard</title>
    <desc>Created with Sketch.</desc>
    <defs></defs>
    <g id="Symbols" stroke="none" stroke-width="1" fill="none" fill-rule="evenodd">
        <g id="Artboard" fill-rule="nonzero" fill="#FFFFFF">
            <path d="M47.8333333,0.153177117 C27.8093882,-1.91849604 12.8862869,17.4921203 11.202057,30.0482708 C17.2097046,21.8565785 27.2489451,11.7421023 38.4815928,5.42263808 C28.4841245,12.2615484 18.1617616,22.9015817 10.7872363,33.8738384 C7.44314346,38.8488539 3.42837553,44.3344267 2,50 C2.91898734,48.4144395 4.29920886,47.1577689 5.63881857,47.013324 C7.46577004,42.5088654 9.95237342,38.0032957 12.6298523,33.8955051 C20.1250527,33.9305052 25.9511076,32.1793886 30.5547468,29.2593794 C27.6051688,27.8427083 22.9765823,26.2349255 19.6742616,25.5965902 C23.6501582,25.7115905 27.2147152,25.7204795 32.9328586,27.5693741 C39.0211498,22.7310257 42.6837553,15.6598924 45.305538,8.28486927 C42.9430907,7.90820142 40.4535865,7.65486729 38.4763713,7.64597838 C40.8614451,7.26875497 43.0910338,6.88097598 45.8155063,6.80542019 C46.5598629,4.58874657 47.2212553,2.35151734 47.8333333,0.153177117 L47.8333333,0.153177117 Z" id="Shape"></path>
        </g>
    </g>
</svg>