<?xml version="1.0" encoding="UTF-8"?>
<svg width="50px" height="50px" viewBox="0 0 50 50" version="1.1" xmlns="http://www.w3.org/2000/svg" xmlns:xlink="http://www.w3.org/1999/xlink">
    <!-- Generator: Sketch 47 (45396) - http://www.bohemiancoding.com/sketch -->
    <title>Artboard</title>
    <desc>Created with Sketch.</desc>
    <defs></defs>
    <g id="Symbols" stroke="none" stroke-width="1" fill="none" fill-rule="evenodd">
        <g id="Artboard" fill-rule="nonzero" fill="#4A4E69">
            <path d="M49.6114218,39.1666667 L46.4284141,39.1666667 C46.5585857,38.2097123 46.6259637,37.2326814 46.6259637,36.2395788 C46.6259637,35.7519746 46.6038425,35.2720491 46.5723197,34.7932207 L42.8382608,34.7932207 C42.7530942,34.0034006 42.6142837,33.2289381 42.4268065,32.4736727 L46.2040017,31.9750987 C45.6437823,29.1728828 44.5421464,26.567025 43.0146774,24.2688679 L39.5438608,26.3004607 C39.1086262,25.7042563 38.6396567,25.1354761 38.1347402,24.5985081 L41.3572464,22.0952172 C39.6041411,20.0674638 37.4843769,18.3682536 35.0974992,17.1045415 L32.9915608,20.7859807 C32.369955,20.4782799 31.7278871,20.2045853 31.0681222,19.9692848 L32.6901594,16.0141509 C30.2994105,15.1036639 27.7095707,14.6007021 25.0002765,14.6007021 L25.0002765,18.9216762 C24.3051177,18.9216762 23.6204665,18.9655551 22.9468759,19.0417946 L22.396058,14.761957 C19.7166274,15.0833699 17.187621,15.8940325 14.9019478,17.1045415 L17.0084392,20.7859807 C16.3730077,21.0997148 15.7596974,21.4491005 15.1696143,21.8330408 L12.6334185,18.4922115 C10.4096847,20.0471698 8.48956432,22.0074594 6.98532258,24.2683194 L10.4566922,26.2999122 C10.0159273,26.904344 9.60945018,27.5356516 9.24666246,28.192738 L5.6055126,26.6657525 C4.38055104,29.1432646 3.62013472,31.8900834 3.42878632,34.7926722 L7.16173917,34.7926722 C7.09205738,35.4267222 7.05445134,36.0679026 7.05445134,36.7195042 C7.05445134,36.8741773 7.06164073,37.0272049 7.06606497,37.1824265 L3.42602117,37.6623519 C3.45901214,38.1688353 3.50959628,38.6704598 3.57710496,39.1666667 L0.38877471,39.1666667 C0.133393542,37.7473272 0,36.2860876 0,34.7937692 C0,21.1002633 11.1927752,10 25.0002765,10 C38.8066718,10 49.999447,21.1002633 50,34.7943177 C50,36.2864439 49.8666979,37.7474992 49.6114218,39.1666667 Z M29.1959101,21.5530303 L30,22.0183903 L26.6883407,30.4223081 C27.6542413,31.260834 28.2771629,32.5597809 28.2771629,34.0211649 C28.2771629,36.5499133 26.4237852,38.5984848 24.1385814,38.5984848 C21.8518886,38.5984848 20,36.5493645 20,34.0211649 C20,31.493514 21.8518886,29.44604 24.1385814,29.44604 C24.3480419,29.44604 24.5525388,29.4685397 24.753065,29.5031124 L29.1959101,21.5530303 Z" id="Combined-Shape"></path>
        </g>
    </g>
</svg>