<?xml version="1.0" encoding="UTF-8"?>
<svg width="50px" height="50px" viewBox="0 0 50 50" version="1.1" xmlns="http://www.w3.org/2000/svg" xmlns:xlink="http://www.w3.org/1999/xlink">
    <!-- Generator: Sketch 47 (45396) - http://www.bohemiancoding.com/sketch -->
    <title>Artboard</title>
    <desc>Created with Sketch.</desc>
    <defs></defs>
    <g id="Symbols" stroke="none" stroke-width="1" fill="none" fill-rule="evenodd">
        <g id="Artboard" fill-rule="nonzero" fill="#4A4E69">
            <path d="M26.6006836,13.1887601 L26.0972114,41.774934 L31.3258985,41.774934 L31.8293707,13.1887601 L26.6006836,13.1887601 Z M23.1574146,13.1887601 L17.9287275,13.1887601 L18.4321997,41.774934 L23.6608868,41.774934 L23.1574146,13.1887601 Z M35.2810048,44.4878655 L35.2794364,44.5705424 C35.2794364,44.732815 35.1461182,44.8647899 34.9829995,44.8647899 L14.7766672,44.8647899 C14.6114573,44.8647899 14.4770934,44.732815 14.4770934,44.5705424 L13.4497591,13.1887601 L8.21950358,13.1887601 L9.24892913,44.6182998 C9.27559277,47.5905594 11.7448548,50 14.7766672,50 L34.9829995,50 C38.0132435,50 40.4819827,47.5900459 40.5076007,44.6177863 L41.5370262,13.1887601 L36.3067707,13.1887601 L35.2810048,44.4878655 Z M34.4732534,4.95804533 L33.4276206,0 L16.3315233,0 L15.2858904,4.95804533 L5,4.95804533 L5,10.0932554 L45.2777778,10.0932554 L45.2777778,4.95804533 L34.4732534,4.95804533 Z" id="Shape"></path>
        </g>
    </g>
</svg>