<?xml version="1.0" encoding="UTF-8"?>
<svg width="50px" height="50px" viewBox="0 0 50 50" version="1.1" xmlns="http://www.w3.org/2000/svg" xmlns:xlink="http://www.w3.org/1999/xlink">
    <!-- Generator: Sketch 47 (45396) - http://www.bohemiancoding.com/sketch -->
    <title>Artboard</title>
    <desc>Created with Sketch.</desc>
    <defs></defs>
    <g id="Symbols" stroke="none" stroke-width="1" fill="none" fill-rule="evenodd">
        <g id="Artboard" fill-rule="nonzero" fill="#4A4E69">
            <path d="M49.6774194,6.1423221 C50.1075269,6.5093633 50.1075269,7.19101124 49.6774194,7.50561798 L27.1505376,29.7902622 C27.0430108,29.8951311 26.9354839,30 26.7741935,30.0524345 L20.4301075,32.5168539 C20.0537634,32.6741573 19.6236559,32.6217228 19.3010753,32.3071161 C18.9784946,32.0449438 18.8709677,31.5730337 19.0322581,31.2059925 L21.5591398,24.9662921 C21.6129032,24.8089888 21.6666667,24.7041199 21.7741935,24.5992509 L44.3010753,2.31460674 C44.4623656,2.10486891 44.7849462,2 45.0537634,2 C45.3225806,2 45.5913978,2.10486891 45.8064516,2.31460674 L49.6774194,6.1423221 Z M39.7849462,23.2883895 C41.2903226,23.2883895 42.4731183,24.4419476 42.4731183,25.9101124 L42.4731183,46.0449438 C42.4731183,47.4606742 41.1827957,48.6666667 39.6774194,48.6666667 L2.68817204,48.6666667 C1.1827957,48.6666667 0,47.5131086 0,46.0449438 L0,7.13857678 C0,5.72284644 1.1827957,4.62172285 2.68817204,4.62172285 L31.5053763,4.62172285 C33.0107527,4.62172285 34.1935484,5.7752809 34.1935484,7.24344569 C34.1935484,8.71161049 33.0107527,9.86516854 31.5053763,9.86516854 L5.37634409,9.86516854 L5.37634409,43.423221 L37.0967742,43.423221 L37.0967742,25.9101124 C37.0967742,24.4419476 38.2795699,23.2883895 39.7849462,23.2883895 Z" id="Combined-Shape"></path>
        </g>
    </g>
</svg>