<?xml version="1.0" encoding="UTF-8"?>
<svg width="50px" height="50px" viewBox="0 0 50 50" version="1.1" xmlns="http://www.w3.org/2000/svg" xmlns:xlink="http://www.w3.org/1999/xlink">
    <!-- Generator: Sketch 47.1 (45422) - http://www.bohemiancoding.com/sketch -->
    <title>Artboard</title>
    <desc>Created with Sketch.</desc>
    <defs></defs>
    <g id="Page-1" stroke="none" stroke-width="1" fill="none" fill-rule="evenodd">
        <g id="Artboard" fill-rule="nonzero" fill="#4A4E69">
            <path d="M26.656496,0 L27.7542992,0 L27.7542992,5.46903384 L26.656496,5.46903384 L26.656496,0 Z M16.1761219,2.70778496 L18.5337425,7.00037827 L17.5709872,7.52915221 L15.2133667,3.2365589 L16.1761219,2.70778496 Z M45.0194872,14.2064824 L45.3880034,15.2412933 L40.2350561,17.0763573 L39.86654,16.0415464 L45.0194872,14.2064824 Z M37.7441265,6.60256255 C37.0084227,7.42606632 36.2630307,8.2604694 35.6938443,8.90231792 L34.8727626,8.17448592 C35.4425546,7.53142636 36.1885521,6.69702328 36.9254669,5.87170296 L38.7583683,3.81536561 L39.5794499,4.54440865 L37.7441265,6.60256255 Z M45.3536646,44.0774336 C46.6773258,45.4010948 46.6773258,47.556737 45.3554811,48.8816092 L45.2271114,49.0087679 C44.5677029,49.6693875 43.6993908,50 42.8298678,50 C41.9597391,50 41.0896105,49.6693875 40.4259634,49.0087679 L23.122696,31.7315378 C22.8338642,31.8023833 22.5395827,31.8496137 22.2356129,31.8496137 C21.8056955,31.8496137 21.3939436,31.7648412 21.0021738,31.6261777 C20.3778853,32.0379296 20.0067031,32.7330637 20.0387955,33.4832998 C20.056961,33.9241166 20.1974411,34.3685664 20.4117943,34.6731417 L20.3990784,34.6822244 C20.6285695,35.1430232 20.7635999,35.6492358 20.7635999,36.1814857 C20.7635999,37.0843123 20.4142163,37.9308257 19.779634,38.5648025 L18.7817412,39.5626953 C18.1465534,40.1966721 17.3006455,40.5448446 16.39903,40.5448446 C15.4955979,40.5448446 14.6502955,40.1966721 14.0163187,39.5626953 L4.98502555,30.5301911 C3.67165815,29.2168237 3.67165815,27.0775305 4.98502555,25.762952 L5.98291835,24.7662703 C7.01532565,23.7308354 8.6871594,23.5546298 9.95995713,24.2116162 L9.972673,24.1958728 C10.0199034,24.2213045 10.058051,24.2406811 10.0913544,24.2600576 L10.2288069,24.3357473 C11.1782583,24.9467145 12.5140298,24.6251847 13.1358963,23.6981374 C13.0166093,23.3317994 12.9397086,22.9497178 12.9397086,22.5524984 C12.9397086,21.5594497 13.3248177,20.6281638 14.0223739,19.9300022 L16.208292,17.7428731 C17.178331,16.7728341 18.652766,16.493085 19.9334355,16.8715334 C20.5934495,16.4652312 20.9846138,15.7458764 20.9500993,14.9738416 C20.9325393,14.5312084 20.7926648,14.0873641 20.5783116,13.7839998 L20.5904219,13.7761281 C20.3597198,13.3141182 20.2246894,12.8079056 20.2246894,12.2750503 C20.2246894,11.3722237 20.574073,10.5257103 21.2086553,9.89173348 L22.2077591,8.89444619 C23.4751072,7.62709812 25.7046225,7.6264926 26.9725761,8.89505171 L36.0032637,17.9281614 C36.6384516,18.5621382 36.9878352,19.4080461 36.9878352,20.3108727 C36.9878352,21.2136992 36.6384516,22.0596071 36.0032637,22.6935839 L35.006582,23.6908712 C34.3719997,24.3254535 33.5254862,24.6748371 32.6226597,24.6748371 C32.0492346,24.6748371 31.5072965,24.5198246 31.0180384,24.254608 L31.0137997,24.2600576 C30.9623308,24.2334149 30.9241832,24.2134328 30.8884576,24.1928452 L30.7594824,24.1213941 C29.8300131,23.5231429 28.5342057,23.8168189 27.8953847,24.6942137 C28.0394979,25.0944607 28.1266924,25.5177174 28.1266924,25.9585342 C28.1266924,26.2431274 28.0873338,26.5192433 28.0249655,26.7899097 L45.3536646,44.0774336 Z M21.9843232,10.6686124 C21.5568278,11.0955022 21.321887,11.6658997 21.3212815,12.2756558 C21.3212815,12.7249497 21.4508623,13.1524451 21.6900417,13.5181776 C21.6936748,13.5260494 21.6991244,13.5321045 21.702152,13.5399763 C21.7851079,13.6616853 21.8777521,13.7767336 21.9843232,13.8826992 L31.0131942,22.9133868 C31.8693959,23.7677719 33.3735013,23.7683775 34.2297031,22.9133868 L35.2263848,21.916705 C35.6544857,21.4898152 35.8894265,20.9194177 35.8894265,20.3102672 C35.8894265,19.7011166 35.6544857,19.1313246 35.2263848,18.7038293 L26.1950917,9.67132511 C25.7682019,9.24504081 25.1984099,9.01010003 24.5892593,9.01010003 C23.9801088,9.01010003 23.4097113,9.24443529 22.983427,9.67132511 L21.9843232,10.6686124 Z M19.0021496,37.7879236 C19.4296449,37.3604282 19.6639802,36.7900308 19.6633747,36.1808802 C19.6633747,35.5717296 19.4284339,35.0013321 19.0009386,34.5744423 L9.97025093,25.5425437 C9.86489089,25.4359726 9.74863153,25.3409063 9.62571148,25.2591615 L9.62450045,25.258556 C9.25574031,25.0127159 8.82037324,24.8807131 8.36381306,24.8807131 C7.75405697,24.8807131 7.18426502,25.1150483 6.7573752,25.5419381 L5.7594824,26.5392254 C4.87421585,27.425703 4.87421585,28.8674401 5.7594824,29.7533122 L14.7919866,38.7858164 C15.6433442,39.6371739 17.1486606,39.639596 18.0042568,38.7858164 L19.0021496,37.7879236 Z M20.3906012,29.9924916 C21.3715395,30.9746409 23.0996863,30.9716133 24.0806247,29.9912805 L26.2683593,27.8035459 C26.7588284,27.3130768 27.0288892,26.6579068 27.0288892,25.9585342 C27.0288892,25.258556 26.7588284,24.6033861 26.2683593,24.1129169 L20.6739833,18.519752 C20.1829087,18.0298883 19.5277388,17.7598275 18.8289716,17.7598275 C18.1302044,17.7598275 17.4750345,18.0298883 16.9839598,18.519752 L14.7980418,20.7074866 C14.3069671,21.1979558 14.0369063,21.8537312 14.0369063,22.5531039 C14.0369063,23.2524766 14.305756,23.907041 14.7974362,24.3962991 L20.3906012,29.9924916 Z M44.5786022,48.1029138 C45.4729515,47.20917 45.4729515,45.7492673 44.5779967,44.854918 L27.575066,27.8913459 C27.4236866,28.137186 27.2535362,28.3715213 27.0452382,28.5798193 L24.8568981,30.768765 C24.6601049,30.9637416 24.4439351,31.1278368 24.214444,31.2725555 L41.1992092,48.231889 C42.0977971,49.1262383 43.5558832,49.1262383 44.4502325,48.231889 L44.5786022,48.1029138 Z" id="Combined-Shape" transform="translate(25.173319, 25.000000) scale(-1, 1) translate(-25.173319, -25.000000) "></path>
        </g>
    </g>
</svg>