<?xml version="1.0" encoding="UTF-8"?>
<svg width="30px" height="30px" viewBox="0 0 30 30" version="1.1" xmlns="http://www.w3.org/2000/svg" xmlns:xlink="http://www.w3.org/1999/xlink">
    <!-- Generator: Sketch 47.1 (45422) - http://www.bohemiancoding.com/sketch -->
    <title>Artboard</title>
    <desc>Created with Sketch.</desc>
    <defs></defs>
    <g id="Symbols" stroke="none" stroke-width="1" fill="none" fill-rule="evenodd">
        <g id="Artboard" fill-rule="nonzero" fill="#4A4E69">
            <path d="M21.513,0 C26.194769,0.013183518 29.9868165,3.80523099 30,8.487 L30,21.513 C29.9868165,26.194769 26.194769,29.9868165 21.513,30 L8.487,30 C3.80523099,29.9868165 0.013183518,26.194769 0,21.513 L0,8.487 C0.013183518,3.80523099 3.80523099,0.013183518 8.487,0 L21.513,0 Z M16.725,17.181 C16.725,15.947 16.725,14.714 16.725,13.482 C16.7312422,13.1509459 16.6255344,12.82748 16.425,12.564 C15.9548896,11.9406603 15.1285717,11.7043946 14.4,11.985 C13.7146557,12.2179566 13.2658317,12.8759056 13.299,13.599 C13.299,15.983 13.299,18.366 13.299,20.748 C13.299,20.853 13.299,20.952 13.299,21.048 C13.3077808,21.639523 13.6871681,22.1617808 14.247,22.353 C14.3936468,22.4079238 14.5453941,22.4481217 14.7,22.473 C15.2024253,22.5705299 15.72206,22.4366507 16.1148091,22.108487 C16.5075582,21.7803233 16.7316707,21.2927605 16.725,20.781 C16.701,19.581 16.725,18.381 16.725,17.181 Z M16.839,9.348 C16.8490307,8.34192163 16.044994,7.51644391 15.039,7.5 C14.2926703,7.48417868 13.6108232,7.92108902 13.3133476,8.60575439 C13.0158721,9.29041976 13.1617958,10.0869826 13.6826586,10.6217351 C14.2035215,11.1564876 14.9959691,11.3233194 15.6882244,11.0439612 C16.3804797,10.764603 16.835179,10.0944876 16.839,9.348 Z" id="Combined-Shape"></path>
        </g>
    </g>
</svg>