<?xml version="1.0" encoding="UTF-8"?>
<svg width="50px" height="50px" viewBox="0 0 50 50" version="1.1" xmlns="http://www.w3.org/2000/svg" xmlns:xlink="http://www.w3.org/1999/xlink">
    <!-- Generator: Sketch 47 (45396) - http://www.bohemiancoding.com/sketch -->
    <title>Artboard</title>
    <desc>Created with Sketch.</desc>
    <defs></defs>
    <g id="Symbols" stroke="none" stroke-width="1" fill="none" fill-rule="evenodd">
        <g id="Artboard" fill-rule="nonzero" fill="#4A4E69">
            <path d="M39.5180723,48.2222222 L11.2048193,48.2222222 C11.0843373,48.2222222 11.0240964,48.1630465 10.9638554,48.1038708 C10.9036145,48.0446951 10.9036145,47.9263436 10.9036145,47.8079922 C13.313253,41.0027847 18.9759036,36.564606 25.3614458,36.564606 C31.686747,36.564606 37.3493976,41.0027847 39.8192771,47.8079922 C39.8795181,47.9263436 39.8192771,47.9855194 39.7590361,48.1038708 C39.7590361,48.1630465 39.6385542,48.2222222 39.5180723,48.2222222 Z M42.5903614,42.9555834 C42.5301205,42.9555834 42.4096386,42.9555834 42.3493976,42.8964077 L40.5421687,41.1211362 C40.4216867,41.0027847 40.4216867,40.8252576 40.5421687,40.7069062 C44.6987952,36.6237817 46.9277108,31.2387914 46.9277108,25.5579226 C46.9277108,13.7227792 37.1084337,4.07713729 25.060241,4.07713729 C13.0120482,4.07713729 3.19277108,13.7227792 3.19277108,25.5579226 C3.19277108,31.2979671 5.48192771,36.6829574 9.57831325,40.7069062 C9.63855422,40.7660819 9.63855422,40.8252576 9.63855422,40.943609 C9.63855422,41.0619605 9.57831325,41.1211362 9.57831325,41.1803119 L7.77108434,42.9555834 C7.65060241,43.0739348 7.46987952,43.0739348 7.34939759,42.9555834 C2.59036145,38.2807018 0,32.1264272 0,25.5579226 C0,12.0066834 11.2048193,1 25,1 C38.7951807,1 50,12.0066834 50,25.5579226 C50,32.1264272 47.4096386,38.2807018 42.6506024,42.9555834 C42.7108434,42.9555834 42.6506024,42.9555834 42.5903614,42.9555834 Z M38.0722892,38.5765803 C38.0120482,38.5765803 37.8915663,38.5765803 37.8313253,38.5174046 L36.0240964,36.7421331 C35.9036145,36.6237817 35.9036145,36.4462545 36.0240964,36.3279031 C38.9759036,33.428293 40.5421687,29.6410471 40.5421687,25.5579226 C40.5421687,17.1549708 33.6144578,10.3497633 25.060241,10.3497633 C16.5060241,10.3497633 9.57831325,17.1549708 9.57831325,25.5579226 C9.57831325,29.6410471 11.2048193,33.428293 14.0963855,36.3279031 C14.1566265,36.3870788 14.1566265,36.4462545 14.1566265,36.564606 C14.1566265,36.6237817 14.0963855,36.7421331 14.0963855,36.8013088 L12.2891566,38.5765803 C12.1686747,38.6949318 11.9879518,38.6949318 11.8674699,38.5765803 C8.31325301,35.085213 6.38554217,30.5286828 6.38554217,25.6170983 C6.38554217,15.4980507 14.7590361,7.27262601 25.060241,7.27262601 C35.3614458,7.27262601 43.7349398,15.4980507 43.7349398,25.6170983 C43.7349398,30.5286828 41.8072289,35.1443887 38.253012,38.5765803 C38.253012,38.5174046 38.1927711,38.5765803 38.0722892,38.5765803 Z M25.060241,35.9728488 C21.3855422,35.9728488 18.4337349,33.0140629 18.4337349,29.4635199 C18.4337349,25.9129769 21.4457831,22.954191 25.060241,22.954191 C28.6746988,22.954191 31.686747,25.9129769 31.686747,29.4635199 C31.686747,33.0140629 28.6746988,35.9728488 25.060241,35.9728488 Z" id="Shape"></path>
        </g>
    </g>
</svg>