<?xml version="1.0" encoding="UTF-8"?>
<svg width="50px" height="50px" viewBox="0 0 50 50" version="1.1" xmlns="http://www.w3.org/2000/svg" xmlns:xlink="http://www.w3.org/1999/xlink">
    <!-- Generator: Sketch 47.1 (45422) - http://www.bohemiancoding.com/sketch -->
    <title>Artboard 3</title>
    <desc>Created with Sketch.</desc>
    <defs></defs>
    <g id="Symbols" stroke="none" stroke-width="1" fill="none" fill-rule="evenodd">
        <g id="Artboard-3" fill-rule="nonzero" fill="#4A4E69">
            <path d="M23.9008133,5.88748368 L16.8748672,12.9231505 C16.3386969,13.4598548 15.575521,13.415052 15.0843004,12.9233422 C14.5933315,12.4318844 14.5486233,11.6688029 15.0830754,11.1338242 L24.2615568,1.87209779 C24.7531186,1.37607767 25.5526379,1.37602531 26.0451497,1.8715934 L35.2488415,11.1324006 C35.78471,11.6688029 35.7400018,12.4318844 35.2490329,12.9233422 C34.7578123,13.415052 33.9946364,13.4598548 33.4583977,12.923082 L26.43252,5.88748368 L26.43252,37.7252313 C26.43252,38.4251763 25.8661075,38.9950588 25.1666667,38.9950588 C24.4647436,38.9950588 23.9008133,38.4266905 23.9008133,37.7252313 L23.9008133,5.88748368 Z M11.2602333,14.9269 C11.7548974,14.4322359 12.5569063,14.4322359 13.0515704,14.9269 C13.5462345,15.4215641 13.5462345,16.223573 13.0515704,16.7182371 C6.36058758,23.40922 6.36058758,34.2574467 13.0515704,40.9484296 C19.7425533,47.6394124 30.59078,47.6394124 37.2817629,40.9484296 C43.9727457,34.2574467 43.9727457,23.40922 37.2817629,16.7182371 C36.7870988,16.223573 36.7870988,15.4215641 37.2817629,14.9269 C37.776427,14.4322359 38.5784359,14.4322359 39.0731,14.9269 C46.7534111,22.6072111 46.7534111,35.0594556 39.0731,42.7397667 C31.3927889,50.4200778 18.9405444,50.4200778 11.2602333,42.7397667 C3.57992223,35.0594556 3.57992223,22.6072111 11.2602333,14.9269 Z" id="Shape"></path>
        </g>
    </g>
</svg>