<?xml version="1.0" encoding="UTF-8"?>
<svg width="50px" height="50px" viewBox="0 0 50 50" version="1.1" xmlns="http://www.w3.org/2000/svg" xmlns:xlink="http://www.w3.org/1999/xlink">
    <!-- Generator: Sketch 47 (45396) - http://www.bohemiancoding.com/sketch -->
    <title>Artboard</title>
    <desc>Created with Sketch.</desc>
    <defs></defs>
    <g id="Symbols" stroke="none" stroke-width="1" fill="none" fill-rule="evenodd">
        <g id="Artboard" stroke="#FFFFFF" fill-rule="nonzero" stroke-width="0.555555556" fill="#FFFFFF">
            <g id="Group-12" transform="translate(0.000000, 3.000000)">
                <polygon id="Shape" points="23.5931677 4.56743012 33.0496894 14.1421584 33.5807453 14.6798525 33.0496894 15.2175466 27.189441 21.1510481 26.6583851 21.6887422 26.1273292 21.1510481 16.6708075 11.5763199 16.1397516 11.0386258 16.6708075 10.5009317 22.5310559 4.56743012 23.0621118 4.02973602"></polygon>
                <path d="M23.826087,0.935636646 C24.431677,1.54879658 24.7391304,2.36005435 24.7391304,3.17131211 C24.7391304,3.98256988 24.431677,4.79382764 23.826087,5.40698758 L17.5,11.8121506 C16.8944099,12.4253106 16.0931677,12.7271739 15.2919255,12.7271739 L15.2919255,12.7271739 C14.4906832,12.7271739 13.689441,12.4158773 13.0838509,11.8027174 L13.0838509,11.8027174 C12.4782609,11.1895575 12.1708075,10.3782997 12.1708075,9.56704193 C12.1708075,8.75578416 12.4782609,7.9445264 13.0838509,7.33136646 L13.0838509,7.33136646 L19.4099379,0.926203416 C20.015528,0.313043478 20.8167702,0.00174689441 21.6180124,0.00174689441 C22.4192547,0.00174689441 23.2204969,0.313043478 23.826087,0.926203416 L23.826087,0.935636646 Z" id="Shape"></path>
                <path d="M36.636646,13.9063276 C37.242236,14.5194876 37.5496894,15.3307453 37.5496894,16.1420031 C37.5496894,16.9532609 37.242236,17.7645186 36.636646,18.3776786 L30.310559,24.7828416 C29.7049689,25.3960016 28.9037267,25.6978649 28.1024845,25.6978649 L28.1024845,25.6978649 C27.3012422,25.6978649 26.5,25.3865683 25.8944099,24.7734084 L25.8944099,24.7734084 C25.2888199,24.1602484 24.9813665,23.3489907 24.9813665,22.5377329 C24.9813665,21.7264752 25.2888199,20.9152174 25.8944099,20.3020575 L25.8944099,20.3020575 L32.2204969,13.8968944 C32.826087,13.2837345 33.6273292,12.9724379 34.4285714,12.9724379 C35.2298137,12.9724379 36.0310559,13.2837345 36.636646,13.8968944 L36.636646,13.9063276 Z" id="Shape"></path>
                <path d="M20.863354,13.6893634 L24.0403727,16.9060947 L24.552795,17.4249224 L24.0590062,17.9531832 L6.7484472,36.5177795 C6.70186335,36.5649457 6.72049689,36.5460792 6.70186335,36.5649457 C6.27329193,36.9988742 5.70496894,37.2064053 5.13664596,37.2064053 C4.57763975,37.2064053 4.00931677,36.989441 3.58074534,36.5743789 L3.58074534,36.5743789 C3.53416149,36.5272127 3.55279503,36.5555124 3.53416149,36.5272127 L1.47515528,34.4424689 C1.45652174,34.4236025 1.47515528,34.4424689 1.42857143,34.3953028 L1.42857143,34.3953028 C1.01863354,33.9613742 0.813664596,33.3859472 0.804347826,32.8199534 C0.804347826,32.2445264 1.00931677,31.6690994 1.4378882,31.2351708 L1.4378882,31.2351708 C1.45652174,31.2163043 1.4378882,31.2351708 1.48447205,31.1880047 L19.8198758,13.6610637 L20.3416149,13.1611025 L20.8540373,13.6799301 L20.863354,13.6893634 Z" id="Shape"></path>
                <path d="M25.2049689,38.3666925 L46.5403727,38.3666925 C47.0807453,38.3666925 47.5745342,38.5930901 47.9378882,38.9515528 C48.2919255,39.3100155 48.515528,39.8099767 48.515528,40.3665373 L48.515528,42.3003494 C48.515528,42.8474767 48.2919255,43.3474379 47.9378882,43.7153339 C47.5838509,44.0737966 47.0900621,44.3001941 46.5403727,44.3001941 L25.2049689,44.3001941 C24.6645963,44.3001941 24.1708075,44.0737966 23.8074534,43.7153339 C23.4534161,43.3568711 23.2298137,42.8569099 23.2298137,42.3003494 L23.2298137,40.3665373 C23.2298137,39.8194099 23.4534161,39.3194488 23.8074534,38.9515528 C24.1614907,38.5930901 24.6552795,38.3666925 25.2049689,38.3666925 Z M46.5403727,39.8760093 L25.2049689,39.8760093 C25.0745342,39.8760093 24.9534161,39.9326087 24.8602484,40.0175078 C24.7763975,40.1024068 24.7204969,40.2250388 24.7204969,40.3665373 L24.7204969,42.3003494 C24.7204969,42.4324146 24.7763975,42.5550466 24.8602484,42.6493789 C24.9440994,42.734278 25.0652174,42.7908773 25.2049689,42.7908773 L46.5403727,42.7908773 C46.6708075,42.7908773 46.7919255,42.734278 46.8850932,42.6493789 C46.9689441,42.5644798 47.0248447,42.4418478 47.0248447,42.3003494 L47.0248447,40.3665373 C47.0248447,40.234472 46.9689441,40.1118401 46.8850932,40.0175078 C46.8012422,39.9326087 46.6801242,39.8760093 46.5403727,39.8760093 Z" id="Shape"></path>
                <path d="M28.3540373,33.9425078 L43.3913043,33.9425078 C43.931677,33.9425078 44.4254658,34.1689053 44.7888199,34.527368 C45.1428571,34.8858307 45.3664596,35.3857919 45.3664596,35.9423525 L45.3664596,37.8761646 C45.3664596,38.4232919 45.1428571,38.9232531 44.7888199,39.2911491 C44.4347826,39.6496118 43.9409938,39.8760093 43.3913043,39.8760093 L28.3540373,39.8760093 C27.8136646,39.8760093 27.3198758,39.6496118 26.9565217,39.2911491 C26.6024845,38.9326863 26.378882,38.4327252 26.378882,37.8761646 L26.378882,35.9423525 C26.378882,35.3952252 26.6024845,34.895264 26.9565217,34.527368 C27.310559,34.1689053 27.8043478,33.9425078 28.3540373,33.9425078 Z M43.3913043,35.4518245 L28.3540373,35.4518245 C28.2236025,35.4518245 28.1024845,35.5084239 28.0093168,35.593323 C27.9254658,35.678222 27.8695652,35.800854 27.8695652,35.9423525 L27.8695652,37.8761646 C27.8695652,38.0082298 27.9254658,38.1308618 28.0093168,38.2251941 C28.0931677,38.3100932 28.2142857,38.3666925 28.3540373,38.3666925 L43.3913043,38.3666925 C43.5217391,38.3666925 43.6428571,38.3100932 43.7360248,38.2251941 C43.8198758,38.140295 43.8757764,38.017663 43.8757764,37.8761646 L43.8757764,35.9423525 C43.8757764,35.8102873 43.8198758,35.6876553 43.7360248,35.593323 C43.6521739,35.5084239 43.5310559,35.4518245 43.3913043,35.4518245 Z" id="Shape"></path>
            </g>
        </g>
    </g>
</svg>