<?xml version="1.0" encoding="UTF-8"?>
<svg width="100px" height="100px" viewBox="0 0 100 100" version="1.1" xmlns="http://www.w3.org/2000/svg" xmlns:xlink="http://www.w3.org/1999/xlink">
    <!-- Generator: Sketch 47 (45396) - http://www.bohemiancoding.com/sketch -->
    <title>Artboard</title>
    <desc>Created with Sketch.</desc>
    <defs></defs>
    <g id="Symbols" stroke="none" stroke-width="1" fill="none" fill-rule="evenodd">
        <g id="Artboard" fill="#4A4E69" fill-rule="nonzero">
            <g id="Group">
                <path d="M72.9978478,37.3808662 C72.9965564,37.2700859 72.9832132,37.16099 72.9569573,37.0548428 C72.9517919,37.0333603 72.9423227,37.0139847 72.9358661,36.9929235 C72.9113319,36.9095223 72.8807715,36.8290693 72.8420326,36.7511436 C72.8256763,36.7187097 72.8067373,36.6888031 72.7877989,36.6576328 C72.7494905,36.5931867 72.7064477,36.5321099 72.6582397,36.4735605 C72.6345664,36.4457601 72.6121838,36.4179592 72.5863583,36.3914225 C72.5282506,36.3307669 72.4632558,36.2760086 72.3939565,36.2250409 C72.3767393,36.2124044 72.3638265,36.1955556 72.3461789,36.1837616 C72.3410141,36.1803917 72.3349879,36.179128 72.3298226,36.1757587 C72.2390022,36.1163668 72.1421562,36.0637141 72.0358405,36.0236985 L51.0421245,28.0988811 C50.6934776,27.9670396 50.3065224,27.9670396 49.9578755,28.0988811 L28.9800854,36.0178012 C28.9800854,36.0178012 28.979655,36.0182224 28.9792245,36.0182224 L28.9641595,36.0236985 C28.8582742,36.0641354 28.7609972,36.1163668 28.6701768,36.1757587 C28.6650121,36.179128 28.6594163,36.1803917 28.654251,36.1837616 C28.6370344,36.1955556 28.6245514,36.2119832 28.6077647,36.2241984 C28.5376051,36.2751662 28.4726103,36.3303457 28.4136417,36.3918437 C28.3882466,36.4179592 28.3658641,36.4453389 28.3426212,36.4731393 C28.2939827,36.5316887 28.25094,36.5931867 28.2122011,36.6576328 C28.1936926,36.6888031 28.1747542,36.7187097 28.1583978,36.7511436 C28.119659,36.828648 28.0890986,36.9095223 28.0645644,36.9929235 C28.0581077,37.0139847 28.0486385,37.0333603 28.0434732,37.0548428 C28.0172172,37.16099 28.003874,37.2700859 28.0021522,37.3808662 C28.0021522,37.3871847 28,37.393082 28,37.3994 L28,63.6009161 C28,64.2104199 28.3830813,64.7571626 28.9641595,64.9766176 L49.9578755,72.901435 C50.00264,72.9182838 50.0491263,72.9267079 50.0951821,72.9393444 C50.1343509,72.9502965 50.171368,72.9641967 50.211828,72.9717784 C50.3069528,72.9898909 50.4033689,73 50.5002149,73 C50.5966311,73 50.6930472,72.9898909 50.788172,72.9717784 C50.828632,72.9641967 50.8656491,72.9502965 50.9048179,72.9393444 C50.9508737,72.9267079 50.99736,72.9182838 51.0421245,72.901435 L72.0358405,64.9766176 C72.6169187,64.7571626 73,64.2104199 73,63.6009161 L73,37.3994 C73,37.393082 72.9978478,37.3871847 72.9978478,37.3808662 L72.9978478,37.3808662 Z M50.5002149,43.7446455 L44.1892734,41.3622296 L60.9970732,35.0169847 L67.3080147,37.3994 L50.5002149,43.7446455 L50.5002149,43.7446455 Z M50.5002149,31.0541545 L56.8111564,33.4365703 L40.0033572,39.7818158 L33.6924157,37.3994 L50.5002149,31.0541545 L50.5002149,31.0541545 Z M31.0129991,39.5480389 L38.4968577,42.373577 L38.4968577,53.7907221 C38.4968577,54.6045176 39.171339,55.2649892 40.0033572,55.2649892 C40.8353755,55.2649892 41.5098568,54.6045176 41.5098568,53.7907221 L41.5098568,43.5108685 L48.993716,46.3364066 L48.993716,69.3770946 L31.0129991,62.5895687 L31.0129991,39.5480389 L31.0129991,39.5480389 Z M69.9870009,62.5895687 L52.0067145,69.3770946 L52.0067145,46.3364066 L69.9870009,39.5480389 L69.9870009,62.5895687 L69.9870009,62.5895687 Z" id="Shape" stroke="#4A4E69" stroke-width="0.5"></path>
                <path d="M50,100 C22.3857625,100 0,77.6142375 0,50 C0,22.3857625 22.3857625,0 50,0 C77.6142375,0 100,22.3857625 100,50 C100,77.6142375 77.6142375,100 50,100 Z M50,95.8677686 C75.3320691,95.8677686 95.8677686,75.3320691 95.8677686,50 C95.8677686,24.6679309 75.3320691,4.1322314 50,4.1322314 C24.6679309,4.1322314 4.1322314,24.6679309 4.1322314,50 C4.1322314,75.3320691 24.6679309,95.8677686 50,95.8677686 Z" id="Oval-3"></path>
            </g>
        </g>
    </g>
</svg>