<?xml version="1.0" encoding="UTF-8"?>
<svg width="50px" height="50px" viewBox="0 0 50 50" version="1.1" xmlns="http://www.w3.org/2000/svg" xmlns:xlink="http://www.w3.org/1999/xlink">
    <!-- Generator: Sketch 47.1 (45422) - http://www.bohemiancoding.com/sketch -->
    <title>Artboard</title>
    <desc>Created with Sketch.</desc>
    <defs></defs>
    <g id="Symbols" stroke="none" stroke-width="1" fill="none" fill-rule="evenodd">
        <g id="Artboard" fill-rule="nonzero" fill="#4A4E69">
            <path d="M41.9999996,22.8167746 L41.9999996,44.7914538 C41.9999996,47.1206206 40.1612744,49 37.9137934,49 L13.0862063,49 C10.8387253,49 9,47.1206206 9,44.7914538 L9,22.8167746 C9,20.9508306 10.1800838,19.3735578 11.8050255,18.8199878 L11.8050255,15.2982335 C11.8050255,7.41273274 17.9476734,1 25.5005982,1 C33.0538558,1 39.1962427,7.41311006 39.1955725,15.2982335 L39.1955725,18.8199833 C40.8207007,19.3736039 42.000756,20.9511002 41.9999996,22.8167746 Z M37.9143917,21.6706403 L36.2622392,21.6706403 L36.2622392,20.1394343 L36.2622392,15.2980976 C36.2627656,9.10428234 31.4337328,4.0624119 25.5005982,4.0624119 C19.5676865,4.0624119 14.7383588,9.10407929 14.7383588,15.2982335 L14.7383588,21.6706403 L13.0862063,21.6706403 C12.4450086,21.6706403 11.9333333,22.1936287 11.9333333,22.8167746 L11.9333333,44.7914538 C11.9333333,45.4145997 12.4450086,45.9375881 13.0862063,45.9375881 L37.9137934,45.9375881 C38.554991,45.9375881 39.0666663,45.4145997 39.0666663,44.7914538 L39.0666664,22.8161266 C39.0669189,22.1934226 38.5555258,21.6706403 37.9143917,21.6706403 Z M34.468411,15.2982335 C34.468411,10.1370581 30.4448319,5.93642514 25.5011965,5.93642514 C20.5577806,5.93642514 16.533982,10.1374535 16.533982,15.2982335 L16.533982,18.6082284 L34.468411,18.6082284 L34.468411,15.2982335 Z M13.6006487,15.2982335 C13.6006487,8.4461573 18.9377194,2.87401324 25.5011965,2.87401324 C32.0648671,2.87401324 37.4017443,8.44573467 37.4017443,15.2982335 L37.4017443,21.6706403 L13.6006487,21.6706403 L13.6006487,15.2982335 Z M37.2722398,23.5446535 L13.7289565,23.5446535 L13.7289565,44.0635749 L37.2722398,44.0635749 L37.2722398,23.5446535 Z M40.2055731,44.7914538 C40.2055731,46.1045605 39.157353,47.1259868 37.9143917,47.1259868 L13.0868046,47.1259868 C11.8438434,47.1259868 10.7956232,46.1045605 10.7956232,44.7914538 L10.7956232,22.8167746 C10.7956232,21.5036679 11.8438434,20.4822416 13.0868046,20.4822416 L37.9143917,20.4822416 C39.157353,20.4822416 40.2055731,21.5036679 40.2055731,22.8167746 L40.2055731,44.7914538 Z M25.4874745,28 C23.8375645,28 22.5,29.3944887 22.5,31.1146158 C22.5,32.1989317 23.0323886,33.1517894 23.8392127,33.7102722 L23.8392127,37.6613907 C23.8392127,38.6099523 24.577634,39.3797994 25.4874745,39.3797994 C26.397315,39.3797994 27.1357363,38.6099523 27.1357363,37.6613907 L27.1357363,33.7102722 C27.9425605,33.1526486 28.474949,32.1989317 28.474949,31.1146158 C28.474949,29.3944887 27.1373846,28 25.4874745,28 Z" id="Shape"></path>
        </g>
    </g>
</svg>