<?xml version="1.0" encoding="UTF-8"?>
<svg width="50px" height="50px" viewBox="0 0 50 50" version="1.1" xmlns="http://www.w3.org/2000/svg" xmlns:xlink="http://www.w3.org/1999/xlink">
    <!-- Generator: Sketch 47 (45396) - http://www.bohemiancoding.com/sketch -->
    <title>Artboard</title>
    <desc>Created with Sketch.</desc>
    <defs></defs>
    <g id="Symbols" stroke="none" stroke-width="1" fill="none" fill-rule="evenodd">
        <g id="Artboard" fill-rule="nonzero" fill="#4A4E69">
            <g id="Group" transform="translate(5.000000, 0.000000)">
                <path d="M25.7142857,1.33928571 C24.8214286,0.446428571 23.5714286,0 22.3214286,0 L8.92857143,0 C4.28571429,0 0.446428571,3.83928571 0.446428571,8.48214286 L0.446428571,41.5178571 C0.446428571,46.1607143 4.28571429,50 8.92857143,50 L30.3571429,50 C35,50 38.8392857,46.1607143 38.8392857,41.5178571 L38.8392857,15.8035714 C38.8392857,14.4642857 38.3035714,13.125 37.3214286,12.2321429 L25.7142857,1.33928571 Z M36.1607143,41.5178571 C36.1607143,44.7321429 33.5714286,47.3214286 30.3571429,47.3214286 L8.92857143,47.3214286 C5.71428571,47.3214286 3.125,44.7321429 3.125,41.5178571 L3.125,8.48214286 C3.125,5.26785714 5.71428571,2.67857143 8.92857143,2.67857143 L22.3214286,2.67857143 L22.4107143,2.67857143 L22.4107143,10.7142857 C22.4107143,13.3928571 24.6428571,15.625 27.3214286,15.625 L36.1607143,15.625 C36.1607143,15.7142857 36.1607143,15.8035714 36.1607143,15.8035714 L36.1607143,41.5178571 Z" id="Shape"></path>
                <path d="M29.8337223,32.7631579 C29.5141167,32.0614035 28.7151027,31.7105263 27.356779,31.7105263 C26.5577651,31.7105263 25.5989484,31.7982456 24.4803288,32.0614035 C22.882301,30.2192982 21.2842731,27.5 20.0857522,24.8684211 C21.2043717,19.5175439 20.4852591,18.4649123 20.2455549,18.1140351 C20.0058508,17.7631579 19.6063438,17.5 19.1269354,17.5 C18.9671326,17.5 18.7274284,17.5 18.5676257,17.5877193 C18.0882173,17.7631579 17.6887103,18.2017544 17.4490061,18.7280702 C16.809795,20.2192982 17.6088089,22.9385965 18.4877243,24.9561404 C17.7686117,28.2017544 16.4901894,32.0614035 15.2117671,35.2192982 C11.9358099,36.8859649 10.1779792,38.4649123 10.0181765,40.0438596 C9.93827506,40.5701754 10.0980779,41.4473684 10.9769932,42.1491228 C11.2166974,42.3245614 11.536303,42.5 11.7760071,42.5 C12.4951197,42.5 13.2941336,41.8859649 14.173049,40.4824561 C14.8122601,39.5175439 15.5313727,38.1140351 16.2504852,36.4473684 C18.5676257,35.3070175 21.4440759,34.3421053 23.9210191,33.7280702 C25.2793428,35.1315789 26.4778637,35.9210526 27.5964832,35.9210526 C28.3954972,35.9210526 29.0347083,35.5701754 29.5141167,34.7807018 C29.9935251,33.9912281 30.1533278,33.2894737 29.8337223,32.7631579 Z M11.8559085,40.8333333 C11.4564016,40.4824561 11.4564016,40.2192982 11.4564016,40.2192982 C11.536303,39.6929825 12.2554155,38.7280702 14.0931476,37.5877193 C12.7348239,40.3947368 12.0157113,40.8333333 11.8559085,40.8333333 Z M18.7274284,19.3421053 C18.8073298,19.1666667 18.8872312,19.1666667 18.9671326,19.0789474 C18.9671326,19.0789474 19.047034,19.0789474 19.047034,19.0789474 C19.2068368,19.254386 19.3666396,20.1315789 19.047034,22.1491228 C18.7274284,21.0087719 18.4877243,19.8684211 18.7274284,19.3421053 Z M17.1294006,34.3421053 C18.0083159,32.0614035 18.8073298,29.5175439 19.446541,27.1491228 C20.4053577,29.0789474 21.6038786,30.9210526 22.7224982,32.4122807 C20.9646675,32.8508772 18.9671326,33.5526316 17.1294006,34.3421053 Z M28.3155958,33.8157895 C28.0758916,34.254386 27.756286,34.254386 27.5964832,34.254386 C27.1170749,34.254386 26.4778637,33.9035088 25.8386525,33.377193 C26.3979623,33.2894737 26.9572721,33.2894737 27.356779,33.2894737 C28.155793,33.2894737 28.4753986,33.377193 28.5553,33.4649123 C28.4753986,33.5526316 28.4753986,33.6403509 28.3155958,33.8157895 Z" id="Shape"></path>
            </g>
        </g>
    </g>
</svg>