<?xml version="1.0" encoding="UTF-8"?>
<svg width="50px" height="50px" viewBox="0 0 50 50" version="1.1" xmlns="http://www.w3.org/2000/svg" xmlns:xlink="http://www.w3.org/1999/xlink">
    <!-- Generator: Sketch 47 (45396) - http://www.bohemiancoding.com/sketch -->
    <title>Artboard</title>
    <desc>Created with Sketch.</desc>
    <defs></defs>
    <g id="Symbols" stroke="none" stroke-width="1" fill="none" fill-rule="evenodd">
        <g id="Artboard" fill="#4A4E69">
            <path d="M25.0020756,0 C23.9936585,0 23.179702,0.809722222 23.1824801,1.81805556 L23.1824801,23.1763889 L1.82237351,23.1763889 C0.815345464,23.1763889 0,23.9916667 0,25 C0,26.0069444 0.815345464,26.8222222 1.82237351,26.8180556 L23.1824801,26.8180556 L23.1824801,48.1805556 C23.179702,49.1847222 23.9936585,50 25.0020756,50 C25.5062841,50 25.9590994,49.7986111 26.2896824,49.4680556 C26.6202654,49.1375 26.8216711,48.6805556 26.8216711,48.1805556 L26.8216711,26.8180556 L48.1817776,26.8180556 C48.6845971,26.8180556 49.1374125,26.6180556 49.4693845,26.2861111 C49.7999675,25.9555556 49.9999841,25.5027778 49.9999841,25 C50.0041511,23.9916667 49.1888056,23.1763889 48.1817776,23.1763889 L26.8216711,23.1763889 L26.8216711,1.81805556 C26.8244491,0.809722222 26.0104926,0 25.0020756,0 Z" id="Fill-168"></path>
        </g>
    </g>
</svg>