<?xml version="1.0" encoding="UTF-8"?>
<svg width="50px" height="50px" viewBox="0 0 50 50" version="1.1" xmlns="http://www.w3.org/2000/svg" xmlns:xlink="http://www.w3.org/1999/xlink">
    <!-- Generator: Sketch 47 (45396) - http://www.bohemiancoding.com/sketch -->
    <title>Artboard</title>
    <desc>Created with Sketch.</desc>
    <defs></defs>
    <g id="Symbols" stroke="none" stroke-width="1" fill="none" fill-rule="evenodd">
        <g id="Artboard" fill-rule="nonzero" fill="#4A4E69">
            <path d="M25,0 C11.1666667,0 0,11.1666667 0,25 C0,38.8333333 11.1666667,50 25,50 C38.8333333,50 50,38.8333333 50,25 C50,11.1666667 38.7777778,0 25,0 Z M38.4054054,40 C37.1081081,38.3152174 35.2702703,37.0652174 33.2162162,36.4130435 L30.0810811,35.4891304 C29,35.1630435 28.4594595,34.0217391 28.7837838,32.9347826 C28.8378378,32.7173913 29,32.5 29.1081081,32.3369565 L31.3783784,29.7826087 C32.8918919,28.0978261 33.5945946,25.8152174 33.3243243,23.5869565 L32.9459459,20.4891304 C32.6756757,18.1521739 31.3783784,16.0326087 29.3783784,14.7282609 L29.3243243,14.7282609 C26.6756757,13.0434783 23.2702703,13.0434783 20.6216216,14.8369565 L20.6216216,14.8369565 C18.7837838,16.0869565 17.5945946,17.9891304 17.2702703,20.1630435 L16.7837838,23.423913 C16.4054054,25.7608696 17.1081081,28.1521739 18.6756757,29.9456522 L20.8378378,32.3369565 C21,32.5 21.1081081,32.7173913 21.1621622,32.9347826 C21.5405405,33.9673913 20.9459459,35.1630435 19.8648649,35.4891304 L16.7297297,36.4130435 C14.6756757,37.0652174 12.8378378,38.3152174 11.5405405,40 C7.48648649,36.3043478 5,30.9782609 5,25.1086957 C5,14.0217391 13.972973,5 25,5 C36.027027,5 45,14.0217391 45,25.1086957 C45,30.9782609 42.4594595,36.3043478 38.4054054,40 Z" id="Shape"></path>
        </g>
    </g>
</svg>