<?xml version="1.0" encoding="UTF-8"?>
<svg width="151px" height="49px" viewBox="0 0 151 49" version="1.1" xmlns="http://www.w3.org/2000/svg" xmlns:xlink="http://www.w3.org/1999/xlink">
    <!-- Generator: Sketch 47 (45396) - http://www.bohemiancoding.com/sketch -->
    <title>Group</title>
    <desc>Created with Sketch.</desc>
    <defs>
        <linearGradient x1="0%" y1="0%" x2="100%" y2="90.330332%" id="linearGradient-1">
            <stop stop-color="#FCCA32" offset="0%"></stop>
            <stop stop-color="#FF9D29" offset="100%"></stop>
        </linearGradient>
        <path d="M1.91475673,8.19525 L10.0554053,8.19525 L10.0554053,6.95459722 L1.91475673,6.95459722 L1.91475673,8.19525 Z M21.0374839,35.0275139 L21.0374839,28.9004722 L37,28.9004722 L37,43.3629583 C33.295377,46.9379167 26.3967327,49 21.2941648,49 C16.3827276,49 12.4628238,47.6184722 9.49581336,45.392375 L9.49581336,48.9516806 L2.46468866,48.9516806 L2.46468866,11.4857361 L9.49581336,11.4857361 L9.49581336,15.1607361 C12.4138336,12.8631806 16.222647,11.4319722 20.9008634,11.4319722 C28.5074502,11.4319722 33.9177592,14.4223333 35.6482853,22.2813889 L29.1470824,23.48325 C28.0361785,19.6272222 24.8462973,17.7114583 20.8912034,17.7114583 C6.2334819,17.7114583 6.76133376,42.7225556 20.8228932,42.7225556 C23.8285437,42.7225556 27.1460754,41.4376667 29.5065737,39.6246667 L29.5065737,35.0275139 L21.0374839,35.0275139 Z M11.2622196,1.70547222 C10.7005576,1.70547222 10.3721164,2.31320833 10.6653675,2.77190278 L8.40422953,4.29975 L8.11511851,1.39105556 C9.0224717,1.34681944 8.98728158,0 8.07992839,0 C7.37957593,0 7.11392499,0.896972222 7.68662701,1.27536111 L5.98508103,4.02820833 L4.29319508,1.29441667 C4.90729724,0.933722222 4.65130634,0 3.93508383,0 C3.05533073,0 2.97874047,1.28897222 3.85504354,1.38697222 L3.56386252,4.29975 L1.30479458,2.77190278 C1.59804561,2.31320833 1.26960446,1.70547222 0.707942487,1.70547222 C0.316711113,1.70547222 0,2.01580556 0,2.40168056 C0,2.87466667 0.457471607,3.20065278 0.91356321,3.06522222 L1.91268672,6.45847222 L10.0554053,6.45847222 L11.0565988,3.06522222 C12.0874625,3.37419444 12.3282733,1.70547222 11.2622196,1.70547222 Z" id="path-2"></path>
    </defs>
    <g id="Page-1" stroke="none" stroke-width="1" fill="none" fill-rule="evenodd">
        <g id="Jeweller-Onboard-Form_1" transform="translate(-608.000000, -92.000000)">
            <g id="Group" transform="translate(608.000000, 92.000000)">
                <path d="M54,24.2964668 L58.703627,27.8790299 L58.703627,49 L54,45.4194644 L54,24.2964668 Z M54,16.0588019 L58.703627,16.0588019 L58.703627,24.2984943 L54,20.7159312 L54,16.0588019 Z M84.0150195,24.2086092 C84.0150195,24.2086092 84.0109175,24.0646579 84.0088665,23.9997784 C83.9603262,22.3926599 83.8311132,21.4728583 83.6314825,21.2484835 C82.9334588,20.4611441 69.5499993,20.4591166 68.8116392,21.2484835 C68.1703599,21.9844599 68.1354929,39.6337027 68.9552093,40.3521076 C69.6197333,40.9596768 82.8172354,40.9596768 83.4954328,40.3521076 C84.1469672,39.7452142 84.0341622,34.9995515 84.0341622,33.6418135 L74.6973259,33.6418135 L74.6973259,29.4861484 L88.7377891,29.4861484 C88.7377891,32.7510724 89.0461228,37.7184067 88.3405788,40.7643625 C88.0342961,42.0477595 87.4723221,43.0533913 86.6526057,43.7968018 C85.8677563,44.4942561 84.8402052,44.9599015 83.5692688,45.1836005 C80.9665497,45.6188336 71.5073371,45.6262677 68.9141893,45.1836005 C67.6295795,44.973418 66.6040794,44.5131793 65.8308524,43.8177525 C64.9974627,43.0743419 64.4300193,42.0687102 64.1237366,40.7832857 C63.4065702,37.8731713 63.4106722,24.3005218 63.9452996,21.1890106 C64.1565526,19.9326467 64.6221297,18.9175534 65.3256227,18.1417031 C66.0639827,17.3367922 67.0833298,16.7832892 68.3952862,16.4784909 C71.0793617,15.8364545 81.402729,15.8445644 84.0888555,16.4784909 C85.3891896,16.7968058 86.4003327,17.3638253 87.1386927,18.1815769 C87.8421858,18.9594547 88.3111811,19.9806305 88.5190158,21.2484835 C88.6154128,21.846591 88.6912998,22.7467937 88.7165955,23.9403055 L88.7220648,24.2180708 L84.0150195,24.2086092 Z M97.8695254,29.4861484 C97.2494397,30.1417013 97.261062,39.710747 97.9912181,40.3521076 C98.6311301,40.9346712 108.214086,40.9326437 108.861519,40.3521076 C109.574583,39.6972305 109.591675,30.1437288 109.005089,29.4861484 C108.328259,28.7332762 98.5497738,28.7278696 97.8695254,29.4861484 Z M109.462462,24.7087217 C112.02963,25.3365658 113.45029,26.9267885 113.892622,29.4861484 C114.267955,31.8238367 114.221466,38.5476474 113.686838,40.7643625 C113.092048,43.3047992 111.525768,44.7280925 108.942875,45.1836005 C106.805049,45.5384101 100.084606,45.5478716 97.9508817,45.1836005 C95.3755092,44.7605323 93.7606885,43.3081784 93.1604291,40.7832857 C92.6210161,38.5902245 92.5847817,31.7332758 92.9819921,29.4253239 C93.4120184,26.865964 94.8695959,25.3020985 97.431295,24.7087217 C99.8617302,24.1281857 107.032027,24.1396747 109.462462,24.7087217 Z M119.518515,16.0588019 L124.227612,19.6393375 L124.227612,49 L119.518515,45.4194644 L119.518515,16.0588019 Z M146.290904,16.0588019 L151,19.6393375 L151,49 L146.290904,45.4194644 L146.290904,43.3980634 C146.17468,43.5480972 146.039314,43.6839386 145.895744,43.8177525 C145.068508,44.5557565 144.289128,45.0078852 143.550768,45.1836005 C142.907437,45.3390409 141.609154,45.4194644 139.647714,45.4194644 L139.482951,45.4194644 C137.295217,45.4194644 135.737141,45.3390409 134.801201,45.1836005 C133.529581,44.9599015 132.504765,44.4942561 131.717864,43.7968018 C130.911137,43.0533913 130.357367,42.0477595 130.051085,40.7643625 C129.770098,39.6093729 129.632681,37.8981769 129.632681,35.6415879 L129.632681,34.0939423 C129.632681,31.9191284 129.707884,30.3789169 129.851454,29.4861484 C130.064758,28.216268 130.529651,27.1950922 131.233144,26.4118078 C131.971504,25.5933803 132.983331,25.0263608 134.281614,24.7087217 C135.463674,24.432984 137.200187,24.2964668 139.482951,24.2964668 L139.647714,24.2964668 C141.732898,24.2964668 143.188424,24.432984 144.029334,24.6952052 C144.781368,24.9324207 145.533401,25.464973 146.290904,26.296917 L146.290904,16.0588019 Z M146.290904,33.56139 C146.290904,31.1493606 146.161007,29.7835126 145.895744,29.4861484 C145.560748,29.1279597 143.980794,28.946162 141.151781,28.946162 L139.482951,28.946162 C136.640264,28.946162 135.060311,29.1279597 134.738987,29.4861484 C134.473725,29.7835126 134.335624,31.3237241 134.335624,34.0939423 L134.335624,35.6415879 C134.335624,38.4516799 134.520214,40.020952 134.882557,40.3521076 C135.184738,40.6285212 136.721621,40.7643625 139.482951,40.7643625 L141.151781,40.7643625 C143.913111,40.7643625 145.443841,40.6285212 145.752174,40.3521076 C146.112467,40.0344685 146.290904,38.561164 146.290904,35.9382763 L146.290904,33.56139 Z" id="Fill-1" fill="#4A4E69"></path>
                <mask id="mask-3" fill="white">
                    <use xlink:href="#path-2"></use>
                </mask>
                <use id="Clip-3" fill="url(#linearGradient-1)" xlink:href="#path-2"></use>
                <path d="M1.91475673,8.19525 L10.0554053,8.19525 L10.0554053,6.95459722 L1.91475673,6.95459722 L1.91475673,8.19525 Z M21.0374839,35.0275139 L21.0374839,28.9004722 L37,28.9004722 L37,43.3629583 C33.295377,46.9379167 26.3967327,49 21.2941648,49 C16.3827276,49 12.4628238,47.6184722 9.49581336,45.392375 L9.49581336,48.9516806 L2.46468866,48.9516806 L2.46468866,11.4857361 L9.49581336,11.4857361 L9.49581336,15.1607361 C12.4138336,12.8631806 16.222647,11.4319722 20.9008634,11.4319722 C28.5074502,11.4319722 33.9177592,14.4223333 35.6482853,22.2813889 L29.1470824,23.48325 C28.0361785,19.6272222 24.8462973,17.7114583 20.8912034,17.7114583 C6.2334819,17.7114583 6.76133376,42.7225556 20.8228932,42.7225556 C23.8285437,42.7225556 27.1460754,41.4376667 29.5065737,39.6246667 L29.5065737,35.0275139 L21.0374839,35.0275139 Z M11.2622196,1.70547222 C10.7005576,1.70547222 10.3721164,2.31320833 10.6653675,2.77190278 L8.40422953,4.29975 L8.11511851,1.39105556 C9.0224717,1.34681944 8.98728158,0 8.07992839,0 C7.37957593,0 7.11392499,0.896972222 7.68662701,1.27536111 L5.98508103,4.02820833 L4.29319508,1.29441667 C4.90729724,0.933722222 4.65130634,0 3.93508383,0 C3.05533073,0 2.97874047,1.28897222 3.85504354,1.38697222 L3.56386252,4.29975 L1.30479458,2.77190278 C1.59804561,2.31320833 1.26960446,1.70547222 0.707942487,1.70547222 C0.316711113,1.70547222 0,2.01580556 0,2.40168056 C0,2.87466667 0.457471607,3.20065278 0.91356321,3.06522222 L1.91268672,6.45847222 L10.0554053,6.45847222 L11.0565988,3.06522222 C12.0874625,3.37419444 12.3282733,1.70547222 11.2622196,1.70547222 L11.2622196,1.70547222 Z" id="Fill-2" mask="url(#mask-3)"></path>
            </g>
        </g>
    </g>
</svg>