<?xml version="1.0" encoding="UTF-8"?>
<svg width="50px" height="50px" viewBox="0 0 50 50" version="1.1" xmlns="http://www.w3.org/2000/svg" xmlns:xlink="http://www.w3.org/1999/xlink">
    <!-- Generator: Sketch 47 (45396) - http://www.bohemiancoding.com/sketch -->
    <title>Artboard</title>
    <desc>Created with Sketch.</desc>
    <defs></defs>
    <g id="Symbols" stroke="none" stroke-width="1" fill="none" fill-rule="evenodd">
        <g id="Artboard" fill-rule="nonzero" fill="#FFFFFF">
            <g id="Group-9">
                <path d="M20.1057692,38.6920943 C12.1276037,38.7264444 4.91508041,34.0401979 1.83542801,26.8211694 C-1.24422439,19.6021408 0.416383018,11.2741136 6.04198138,5.72509893 C11.6675797,0.176084291 20.1486522,-1.49950526 27.525737,1.48059369 C34.9028219,4.46069263 39.7209628,11.5087257 39.7307692,19.334258 C39.7441203,29.9884113 30.9677267,38.645328 20.1057692,38.6920943 Z M20.1057692,1.57975035 C12.7708006,1.53964287 6.13549137,5.84318749 3.30103975,12.4790018 C0.466588121,19.1148161 1.99279501,26.7723343 7.16634478,31.8726003 C12.3398946,36.9728663 20.139017,38.5085833 26.9185733,35.7619909 C33.6981296,33.0153985 38.119165,26.5289456 38.1153846,19.334258 C38.1234116,9.56116943 30.0694897,1.62344088 20.1057692,1.58446602 L20.1057692,1.57975035 Z" id="Shape" stroke="#FFFFFF" stroke-width="0.5"></path>
                <rect id="Rectangle-path" transform="translate(38.274230, 36.411961) rotate(-45.000000) translate(-38.274230, -36.411961) " x="36.6076348" y="30.8935025" width="2.39423077" height="11.020527"></rect>
                <rect id="Rectangle-path" transform="translate(41.500337, 40.234119) rotate(-45.000000) translate(-41.500337, -40.234119) " x="38.485914" y="31.9486824" width="6.02884615" height="16.5708738" rx="0.758653846"></rect>
            </g>
        </g>
    </g>
</svg>