<?xml version="1.0" encoding="UTF-8"?>
<svg width="50px" height="50px" viewBox="0 0 50 50" version="1.1" xmlns="http://www.w3.org/2000/svg" xmlns:xlink="http://www.w3.org/1999/xlink">
    <!-- Generator: Sketch 47 (45396) - http://www.bohemiancoding.com/sketch -->
    <title>Artboard</title>
    <desc>Created with Sketch.</desc>
    <defs></defs>
    <g id="Symbols" stroke="none" stroke-width="1" fill="none" fill-rule="evenodd">
        <g id="Artboard" fill-rule="nonzero" fill="#4A4E69">
            <g id="Group">
                <path d="M45.5617978,17.8333333 L45,17.8333333 C44.7752809,17.2777778 44.5505618,16.7777778 44.3258427,16.2222222 L44.7191011,15.8333333 C46.4606742,14.1111111 46.4606742,11.3333333 44.7191011,9.61111111 L40.7303371,5.66666667 C39.8876404,4.83333333 38.7640449,4.38888889 37.5842697,4.38888889 C36.4044944,4.38888889 35.2808989,4.83333333 34.4382022,5.66666667 L34.0449438,6.05555556 C33.5393258,5.83333333 32.9775281,5.61111111 32.4157303,5.38888889 L32.4157303,4.83333333 C32.4157303,2.38888889 30.4494382,0.444444444 27.9775281,0.444444444 L22.3033708,0.444444444 C19.8314607,0.444444444 17.8651685,2.38888889 17.8651685,4.83333333 L17.8651685,5.38888889 C17.3033708,5.61111111 16.7977528,5.83333333 16.2359551,6.05555556 L15.8426966,5.66666667 C15,4.83333333 13.8764045,4.38888889 12.6966292,4.38888889 C11.5168539,4.38888889 10.3932584,4.83333333 9.5505618,5.66666667 L5.56179775,9.61111111 C3.82022472,11.3333333 3.82022472,14.1111111 5.56179775,15.8333333 L5.95505618,16.2222222 C5.73033708,16.7222222 5.50561798,17.2777778 5.28089888,17.8333333 L4.71910112,17.8333333 C2.24719101,17.8333333 0.280898876,19.7777778 0.280898876,22.2222222 L0.280898876,27.7777778 C0.280898876,30.2222222 2.24719101,32.1666667 4.71910112,32.1666667 L5.28089888,32.1666667 C5.50561798,32.7222222 5.73033708,33.2222222 5.95505618,33.7777778 L5.56179775,34.1666667 C3.82022472,35.8888889 3.82022472,38.6666667 5.56179775,40.3888889 L9.5505618,44.3333333 C10.3932584,45.1666667 11.5168539,45.6111111 12.6966292,45.6111111 C13.8764045,45.6111111 15,45.1666667 15.8426966,44.3333333 L16.2359551,43.9444444 C16.741573,44.1666667 17.3033708,44.3888889 17.8651685,44.6111111 L17.8651685,45.1666667 C17.8651685,47.6111111 19.8314607,49.5555556 22.3033708,49.5555556 L27.9775281,49.5555556 C30.4494382,49.5555556 32.4157303,47.6111111 32.4157303,45.1666667 L32.4157303,44.6111111 C32.9775281,44.3888889 33.4831461,44.1666667 34.0449438,43.9444444 L34.4382022,44.3333333 C35.2808989,45.1666667 36.4044944,45.6111111 37.5842697,45.6111111 C38.7640449,45.6111111 39.8876404,45.1666667 40.7303371,44.3333333 L44.7191011,40.3888889 C46.4606742,38.6666667 46.4606742,35.8888889 44.7191011,34.1666667 L44.3258427,33.7777778 C44.5505618,33.2777778 44.7752809,32.7222222 45,32.1666667 L45.5617978,32.1666667 C48.0337079,32.1666667 50,30.2222222 50,27.7777778 L50,22.2222222 C50,19.7777778 47.9775281,17.8333333 45.5617978,17.8333333 Z M45.505618,27.7222222 L41.6292135,27.7222222 L41.1797753,29.3333333 C40.8426966,30.6111111 40.2808989,31.8888889 39.6067416,33.0555556 L38.7640449,34.6111111 L41.5168539,37.3333333 L37.5842697,41.2222222 L34.8314607,38.5 L33.3707865,39.3333333 C32.1910112,40 30.8988764,40.5 29.6067416,40.8888889 L27.9775281,41.3333333 L27.9775281,45.1666667 L22.4157303,45.1666667 L22.4157303,41.3333333 L20.7865169,40.8888889 C19.494382,40.5555556 18.2022472,40 17.0224719,39.3333333 L15.5617978,38.5 L12.8089888,41.2222222 L8.87640449,37.3333333 L11.6292135,34.6111111 L10.6741573,33.1111111 C10,31.9444444 9.49438202,30.6666667 9.1011236,29.3888889 L8.65168539,27.7777778 L4.7752809,27.7777778 L4.7752809,22.2777778 L8.65168539,22.2777778 L9.1011236,20.6666667 C9.43820225,19.3888889 10,18.1111111 10.6741573,16.9444444 L11.5168539,15.4444444 L8.76404494,12.7222222 L12.6966292,8.83333333 L15.4494382,11.5555556 L16.9101124,10.7222222 C18.0898876,10.0555556 19.3820225,9.55555556 20.6741573,9.16666667 L22.3033708,8.72222222 L22.3033708,4.88888889 L27.8651685,4.88888889 L27.8651685,8.72222222 L29.494382,9.16666667 C30.7865169,9.5 32.0786517,10.0555556 33.258427,10.7222222 L34.7191011,11.5555556 L37.4719101,8.83333333 L41.4044944,12.7222222 L38.7640449,15.3888889 L39.6067416,16.8888889 C40.2808989,18.0555556 40.7865169,19.3333333 41.1797753,20.6111111 L41.6292135,22.2222222 L45.505618,22.2222222 L45.505618,27.7222222 Z" id="Shape"></path>
                <path d="M25.1123596,14.4444444 C31.011236,14.4444444 35.7865169,19.1666667 35.7865169,25 C35.7865169,30.8333333 31.011236,35.5555556 25.1123596,35.5555556 C19.2134831,35.5555556 14.4382022,30.8333333 14.4382022,25 C14.4382022,19.1666667 19.2134831,14.4444444 25.1123596,14.4444444 Z M25.1123596,31.1111111 C28.5393258,31.1111111 31.2921348,28.3888889 31.2921348,25 C31.2921348,21.6111111 28.5393258,18.8888889 25.1123596,18.8888889 C21.6853933,18.8888889 18.9325843,21.6111111 18.9325843,25 C18.9325843,28.3888889 21.6853933,31.1111111 25.1123596,31.1111111 Z" id="Shape"></path>
            </g>
        </g>
    </g>
</svg>