<?xml version="1.0" encoding="UTF-8"?>
<svg width="50px" height="50px" viewBox="0 0 50 50" version="1.1" xmlns="http://www.w3.org/2000/svg" xmlns:xlink="http://www.w3.org/1999/xlink">
    <!-- Generator: Sketch 47 (45396) - http://www.bohemiancoding.com/sketch -->
    <title>Artboard</title>
    <desc>Created with Sketch.</desc>
    <defs></defs>
    <g id="Symbols" stroke="none" stroke-width="1" fill="none" fill-rule="evenodd">
        <g id="Artboard" fill-rule="nonzero" fill="#4A4E69">
            <path d="M24.9559409,27.887468 L15.5289928,27.887468 L15.5289928,30.9965924 L27.6222279,30.9965924 L27.6222279,30.9821159 L28.0638001,30.9821159 L28.0638001,18.5478451 L24.9559409,18.5478451 L24.9559409,27.887468 L24.9559409,27.887468 Z M24.9559409,8.39642005 C14.069445,8.39642005 5.24361932,17.1458438 5.24361932,27.9364656 C5.24361932,33.2226454 7.36271637,38.0199621 10.8042828,41.5377716 L6.14586478,46.1546879 L8.45934347,48.4486694 L13.2739409,43.6758515 C16.542474,46.0644876 20.5829156,47.4753976 24.9548173,47.4753976 C29.2907641,47.4753976 33.3008687,46.0878729 36.554795,43.735985 L41.4817518,48.6190476 L43.7963541,46.3261797 L39.0368127,41.6101545 C42.5199521,38.0856635 44.6682626,33.2605072 44.6682626,27.9386928 C44.6682626,17.1458438 35.8424368,8.39642005 24.9559409,8.39642005 L24.9559409,8.39642005 Z M24.9559409,44.3618188 C15.8458461,44.3618188 8.45934347,37.0244187 8.45934347,27.9743275 C8.45934347,18.9253498 15.8447225,11.5879497 24.9559409,11.5879497 C34.0671594,11.5879497 41.4525384,18.9253498 41.4525384,27.9743275 C41.4514148,37.0244187 34.0660358,44.3618188 24.9559409,44.3618188 L24.9559409,44.3618188 Z M11.2952931,1 C8.88069098,1 6.44698779,1.76391812 4.38856479,3.34186561 C-0.549627956,7.12693513 -1.45636778,14.1636678 2.36272599,19.0578662 L20.2458376,5.34965624 C18.0188756,2.49554233 14.6750618,1 11.2952931,1 L11.2952931,1 Z M3.41890373,14.3140015 C3.14474696,13.3062087 3.06834261,12.2449638 3.20766818,11.1781511 C3.48407215,9.03450326 4.58631722,7.12582155 6.311033,5.80399821 C7.75372685,4.69709644 9.47844263,4.11135165 11.2975403,4.11135165 C12.5211334,4.11135165 13.7480973,4.3875203 14.845848,4.90979085 C15.0166342,4.99108243 15.1851732,5.07794192 15.3480943,5.17036933 L3.41890373,14.3140015 L3.41890373,14.3140015 Z M45.6109574,3.44097452 C43.5525344,1.86302703 41.1188312,1.09799533 38.7031055,1.09799533 C35.3244603,1.09799533 31.9817701,2.59465124 29.7536845,5.44765156 L47.6367962,19.1558616 C51.4570135,14.2627767 50.5491501,7.22493046 45.6109574,3.44097452 L45.6109574,3.44097452 Z M46.581742,14.4119969 L34.6536751,5.26947824 C34.8177197,5.17705083 34.9840115,5.09019134 35.1559213,5.00889976 C36.253672,4.48662921 37.4806359,4.21046056 38.7031055,4.21046056 C40.5222031,4.21046056 42.2457953,4.79509177 43.6896128,5.90199354 C45.4143285,7.22493046 46.5165736,9.13249859 46.7929776,11.27726 C46.930056,12.3440727 46.8558988,13.4053176 46.581742,14.4119969 L46.581742,14.4119969 Z" id="Shape"></path>
        </g>
    </g>
</svg>