<?xml version="1.0" encoding="UTF-8"?>
<svg width="50px" height="50px" viewBox="0 0 50 50" version="1.1" xmlns="http://www.w3.org/2000/svg" xmlns:xlink="http://www.w3.org/1999/xlink">
    <!-- Generator: Sketch 47 (45396) - http://www.bohemiancoding.com/sketch -->
    <title>Artboard</title>
    <desc>Created with Sketch.</desc>
    <defs></defs>
    <g id="Symbols" stroke="none" stroke-width="1" fill="none" fill-rule="evenodd">
        <g id="Artboard" fill-rule="nonzero" fill="#4A4E69">
            <path d="M25,35.3676413 L25,35.3676413 C23.6638272,35.3676413 22.5806452,34.3004441 22.5806452,32.9839897 L22.5806452,9.87846078 L13.7419355,18.0384946 C13.1131373,18.633079 12.2083459,18.8484981 11.3733567,18.6024224 C10.5383675,18.3563467 9.90224753,17.686813 9.70811077,16.8497053 C9.51397401,16.0125976 9.79182878,15.1373105 10.4354839,14.5583633 L23.3387097,2.64010559 L23.483871,2.52886852 C23.5457376,2.47533479 23.6103378,2.42494768 23.6774194,2.37790392 L23.8870968,2.26666685 L24.0887097,2.17132079 L24.3467742,2.09186574 L24.5322581,2.04419271 C24.8385053,1.9852691 25.1534302,1.9852691 25.4596774,2.04419271 L25.6451613,2.09186574 L25.9032258,2.17132079 L26.1048387,2.26666685 L26.3145161,2.37790392 C26.3815976,2.42494768 26.4461978,2.47533479 26.5080645,2.52886852 L26.6532258,2.64010559 L39.5564516,14.5583633 C40.2001067,15.1373105 40.4779615,16.0125976 40.2838247,16.8497053 C40.089688,17.686813 39.453568,18.3563467 38.6185788,18.6024224 C37.7835896,18.8484981 36.8787982,18.633079 36.25,18.0384946 L27.4193548,9.87846078 L27.4193548,32.9839897 C27.4193548,34.3004441 26.3361728,35.3676413 25,35.3676413 Z M50,35.3676413 L50,41.7240454 C50,43.6205965 49.2353133,45.4394697 47.8741621,46.7805339 C46.513011,48.121598 44.6668939,48.875 42.7419355,48.875 L7.25806452,48.875 C3.24954617,48.875 9.12359793e-13,45.6734086 9.09494702e-13,41.7240454 L9.09494702e-13,35.3676413 C9.09494702e-13,34.0511869 1.08318206,32.9839897 2.41935484,32.9839897 C3.75552762,32.9839897 4.83870968,34.0511869 4.83870968,35.3676413 L4.83870968,41.7240454 C4.83870968,43.0404998 5.92189173,44.1076969 7.25806452,44.1076969 L42.7419355,44.1076969 C44.0781083,44.1076969 45.1612903,43.0404998 45.1612903,41.7240454 L45.1612903,35.3676413 C45.1612903,34.0511869 46.2444724,32.9839897 47.5806452,32.9839897 C48.9168179,32.9839897 50,34.0511869 50,35.3676413 Z" id="Combined-Shape"></path>
        </g>
    </g>
</svg>